<svg width="180" height="77" viewBox="0 0 180 77" fill="none" xmlns="http://www.w3.org/2000/svg">
<path d="M172.674 14.972V35.402H148.974V14.932H142.454V62.352L148.974 62.392V41.922H172.664V62.392H179.184L179.194 14.972H172.674Z" fill="#0C1B24"/>
<path d="M19.5144 36.6119L34.2143 14.9819H26.2044L8.07435 40.6419V14.9819H1.55435V62.4019L8.07435 53.4419L15.7243 42.1919L31.9044 62.4719L39.7744 62.3119L19.5144 36.6119Z" fill="#0C1B24"/>
<path d="M4.81435 8.49198C6.84435 8.49198 8.48435 6.85198 8.48435 4.82198C8.48435 2.79198 6.84435 1.15198 4.81435 1.15198C2.78435 1.15198 1.14435 2.79198 1.14435 4.82198C1.14435 6.85198 2.78435 8.49198 4.81435 8.49198Z" fill="#4C9AFD"/>
<path d="M107.294 21.332C116.844 21.332 124.624 29.102 124.624 38.662C124.624 48.222 116.854 55.992 107.294 55.992C97.7344 55.992 89.9644 48.222 89.9644 38.662C89.9644 29.102 97.7344 21.332 107.294 21.332ZM107.294 14.912C94.1844 14.912 83.5544 25.542 83.5544 38.662C83.5544 51.782 94.1844 62.402 107.294 62.402C120.404 62.402 131.034 51.772 131.034 38.662C131.034 25.552 120.404 14.912 107.294 14.912Z" fill="#0C1B24"/>
<path d="M56.1344 14.922C55.6144 14.922 55.1044 14.952 54.6044 14.992H50.4244V62.412H56.9444V51.842C66.7744 51.422 74.6044 43.322 74.6044 33.392C74.6044 23.462 66.3344 14.922 56.1344 14.922ZM56.9444 45.412V21.382C63.2144 21.802 68.1944 27.022 68.1944 33.392C68.1944 39.762 63.2144 44.982 56.9444 45.402V45.412Z" fill="#0C1B24"/>
</svg>
