<svg width="64" height="64" viewBox="0 0 64 64" fill="none" xmlns="http://www.w3.org/2000/svg">
<path d="M28.0625 20.625H35.9375C36.1781 20.625 36.375 20.8219 36.375 21.0625V23.25H27.625V21.0625C27.625 20.8219 27.8219 20.625 28.0625 20.625ZM25 21.0625V23.25H21.5C19.5695 23.25 18 24.8195 18 26.75V32H28.5H35.5H46V26.75C46 24.8195 44.4305 23.25 42.5 23.25H39V21.0625C39 19.3727 37.6273 18 35.9375 18H28.0625C26.3727 18 25 19.3727 25 21.0625ZM46 33.75H35.5V35.5C35.5 36.468 34.718 37.25 33.75 37.25H30.25C29.282 37.25 28.5 36.468 28.5 35.5V33.75H18V40.75C18 42.6805 19.5695 44.25 21.5 44.25H42.5C44.4305 44.25 46 42.6805 46 40.75V33.75Z" fill="white"/>
<defs>
<linearGradient id="paint0_linear_0_18" x1="18" y1="18" x2="46" y2="18" gradientUnits="userSpaceOnUse">
<stop stop-color="#6BB1F3"/>
<stop offset="1" stop-color="#92C5F7"/>
</linearGradient>
</defs>
</svg>
