<svg width="64" height="64" viewBox="0 0 64 64" fill="none" xmlns="http://www.w3.org/2000/svg">
<path d="M21.5 21.5C21.5 20.532 20.718 19.75 19.75 19.75C18.782 19.75 18 20.532 18 21.5V39.875C18 42.2922 19.9578 44.25 22.375 44.25H44.25C45.218 44.25 46 43.468 46 42.5C46 41.532 45.218 40.75 44.25 40.75H22.375C21.8937 40.75 21.5 40.3563 21.5 39.875V21.5ZM43.7359 26.2359C44.4195 25.5523 44.4195 24.4422 43.7359 23.7586C43.0523 23.075 41.9422 23.075 41.2586 23.7586L35.5 29.5227L32.3609 26.3836C31.6773 25.7 30.5672 25.7 29.8836 26.3836L23.7586 32.5086C23.075 33.1922 23.075 34.3023 23.7586 34.9859C24.4422 35.6695 25.5523 35.6695 26.2359 34.9859L31.125 30.1023L34.2641 33.2414C34.9477 33.925 36.0578 33.925 36.7414 33.2414L43.7414 26.2414L43.7359 26.2359Z" fill="white"/>
<defs>
<linearGradient id="paint0_linear_0_25" x1="18" y1="19.75" x2="46" y2="19.75" gradientUnits="userSpaceOnUse">
<stop stop-color="#6BB1F3"/>
<stop offset="1" stop-color="#92C5F7"/>
</linearGradient>
</defs>
</svg>
