<svg width="64" height="64" viewBox="0 0 64 64" fill="none" xmlns="http://www.w3.org/2000/svg">
<g clip-path="url(#clip0_0_11)">
<path d="M42.5 18C44.4305 18 46 19.5695 46 21.5V28.5C46 28.9812 45.6063 29.375 45.125 29.375H42.2812C41.9203 29.375 41.625 29.6703 41.625 30.0312V30.25C41.625 31.218 40.843 32 39.875 32C38.907 32 38.125 31.218 38.125 30.25V30.0312C38.125 29.6703 37.8297 29.375 37.4688 29.375H35.5C35.0187 29.375 34.625 28.9812 34.625 28.5V26.75C34.625 26.2688 35.0187 25.875 35.5 25.875H36.375C37.343 25.875 38.125 25.093 38.125 24.125C38.125 23.157 37.343 22.375 36.375 22.375H35.5C35.0187 22.375 34.625 21.9813 34.625 21.5V18.875C34.625 18.3937 35.0187 18 35.5 18H42.5ZM18 31.125V25C18 23.0695 19.5695 21.5 21.5 21.5H29.375C29.8562 21.5 30.25 21.8937 30.25 22.375V25.2188C30.25 25.5797 30.5453 25.875 30.9062 25.875H31.125C32.093 25.875 32.875 26.657 32.875 27.625C32.875 28.593 32.093 29.375 31.125 29.375H30.9062C30.5453 29.375 30.25 29.6703 30.25 30.0312V32.875C30.25 33.3562 29.8562 33.75 29.375 33.75H27.625C27.1438 33.75 26.75 33.3562 26.75 32.875V32C26.75 31.032 25.968 30.25 25 30.25C24.032 30.25 23.25 31.032 23.25 32V32.875C23.25 33.3562 22.8562 33.75 22.375 33.75H20.625V42.0625C20.625 42.7898 21.2102 43.375 21.9375 43.375H30.25V41.4062C30.25 41.0453 29.9547 40.75 29.5938 40.75H29.375C28.407 40.75 27.625 39.968 27.625 39C27.625 38.032 28.407 37.25 29.375 37.25H29.5938C29.9547 37.25 30.25 36.9547 30.25 36.5938V34.625C30.25 34.1437 30.6438 33.75 31.125 33.75H33.75C34.2313 33.75 34.625 34.1437 34.625 34.625V35.5C34.625 36.468 35.407 37.25 36.375 37.25C37.343 37.25 38.125 36.468 38.125 35.5V34.625C38.125 34.1437 38.5187 33.75 39 33.75H41.625C42.1063 33.75 42.5 34.1437 42.5 34.625V42.5C42.5 44.4305 40.9305 46 39 46H32H31.125H21.9375C19.7609 46 18 44.2391 18 42.0625V32.875V31.125Z" fill="white"/>
</g>
<defs>
<linearGradient id="paint0_linear_0_11" x1="18" y1="18" x2="46" y2="18" gradientUnits="userSpaceOnUse">
<stop stop-color="#6BB1F3"/>
<stop offset="1" stop-color="#92C5F7"/>
</linearGradient>
<clipPath id="clip0_0_11">
<rect width="28" height="28" fill="white" transform="translate(18 18)"/>
</clipPath>
</defs>
</svg>
