<svg width="64" height="64" viewBox="0 0 64 64" fill="none" xmlns="http://www.w3.org/2000/svg">
<g clip-path="url(#clip0_0_4)">
<path d="M24.4422 24.9999H29.3258C33.6899 17.7976 40.3946 17.5351 44.4633 18.2898C45.0977 18.4101 45.5954 18.9023 45.7102 19.5367C46.4649 23.6054 46.2024 30.3101 39.0001 34.6796V39.5632C39.0001 40.9523 38.2672 42.2429 37.0696 42.9484L32.2297 45.8195C31.8251 46.0601 31.3219 46.0656 30.9118 45.8304C30.5016 45.5953 30.2501 45.1632 30.2501 44.6874V38.4148C30.2501 37.1789 29.7579 35.9921 28.8829 35.1171C28.0079 34.2421 26.8211 33.7499 25.5852 33.7499H19.3126C18.8422 33.7499 18.4047 33.4984 18.1696 33.0882C17.9344 32.6781 17.9399 32.1749 18.1805 31.7703L21.0516 26.9304C21.7626 25.7328 23.0477 24.9999 24.4368 24.9999H24.4422ZM41.1876 24.9999C41.1876 24.4198 40.9571 23.8634 40.5469 23.4531C40.1366 23.0429 39.5802 22.8124 39.0001 22.8124C38.4199 22.8124 37.8635 23.0429 37.4533 23.4531C37.043 23.8634 36.8126 24.4198 36.8126 24.9999C36.8126 25.5801 37.043 26.1365 37.4533 26.5467C37.8635 26.957 38.4199 27.1874 39.0001 27.1874C39.5802 27.1874 40.1366 26.957 40.5469 26.5467C40.9571 26.1365 41.1876 25.5801 41.1876 24.9999ZM27.1055 43.7031C25.2352 45.5788 21.6094 45.9453 19.5477 45.9945C18.6727 46.0163 17.9836 45.3273 18.0055 44.4523C18.0547 42.3906 18.4211 38.7648 20.2969 36.8945C22.1782 35.0132 25.2243 35.0132 27.1055 36.8945C28.9868 38.7757 28.9868 41.8218 27.1055 43.7031ZM24.5516 41.7124C25.1751 41.089 25.1751 40.0718 24.5516 39.4484C23.9282 38.8249 22.911 38.8249 22.2876 39.4484C21.7352 40.0007 21.5766 41.007 21.5383 41.707C21.511 42.1445 21.861 42.489 22.2985 42.4671C22.9985 42.4289 24.0047 42.2648 24.5571 41.7179L24.5516 41.7124Z" fill="white"/>
</g>
<defs>
<linearGradient id="paint0_linear_0_4" x1="17.9966" y1="18.0023" x2="45.9977" y2="18.0023" gradientUnits="userSpaceOnUse">
<stop stop-color="#6BB1F3"/>
<stop offset="1" stop-color="#92C5F7"/>
</linearGradient>
<clipPath id="clip0_0_4">
<rect width="28" height="28" fill="white" transform="translate(18 18)"/>
</clipPath>
</defs>
</svg>
