<svg width="38" height="38" viewBox="0 0 38 38" fill="none" xmlns="http://www.w3.org/2000/svg">
<path d="M0 8C0 3.58172 3.58172 0 8 0H30C34.4183 0 38 3.58172 38 8V30C38 34.4183 34.4183 38 30 38H8C3.58172 38 0 34.4183 0 30V8Z" fill="#414651" fill-opacity="0.5"/>
<path fill-rule="evenodd" clip-rule="evenodd" d="M25.4091 25.3025C25.386 25.5498 25.2859 25.7847 25.1229 25.9773C24.9611 26.1687 24.7429 26.3091 24.4965 26.3799C24.25 26.4507 23.9881 26.4482 23.7443 26.3737C23.4991 26.2991 23.2834 26.155 23.1243 25.9599C21.7251 24.8826 19.5429 23.3317 19.5429 23.3317C19.5429 23.3317 17.964 26.0245 17.6816 26.3004C17.5879 26.3762 17.4801 26.4334 17.3633 26.4657C17.2452 26.4992 17.1232 26.5079 17.0026 26.493C16.8806 26.4768 16.7651 26.4371 16.6611 26.375C16.5572 26.3141 16.4673 26.2321 16.398 26.1351C16.3838 26.0929 16.3659 26.0506 16.3466 26.0108L17.2323 21.7213L23.5478 15.7156L14.9346 20.4736C14.9346 20.4736 11.0452 19.3478 10.4676 19.1278C10.3187 19.0496 10.1954 18.9315 10.1133 18.7874C10.0311 18.6432 9.99132 18.4805 10.0016 18.3165C10.0106 18.1524 10.0684 17.9946 10.1659 17.8604C10.2648 17.7262 10.4008 17.6218 10.5574 17.5597C11.379 17.1546 25.8712 11.7963 26.359 11.6584C26.8468 11.5204 28.1304 11.1613 27.9892 12.3704C27.848 13.5795 25.5503 24.6389 25.4091 25.3025Z" fill="#A4A7AE"/>
</svg>
