<svg width="38" height="38" viewBox="0 0 38 38" fill="none" xmlns="http://www.w3.org/2000/svg">
<path d="M0 8C0 3.58172 3.58172 0 8 0H30C34.4183 0 38 3.58172 38 8V30C38 34.4183 34.4183 38 30 38H8C3.58172 38 0 34.4183 0 30V8Z" fill="#414651" fill-opacity="0.5"/>
<path fill-rule="evenodd" clip-rule="evenodd" d="M10 14C10.1462 20.2467 13.6539 24 19.8038 24H20.1525V20.4267C22.4123 20.6267 24.1211 22.0978 24.8069 24H28C27.123 21.1567 24.8181 19.5856 23.379 18.9845C24.8181 18.2445 26.8419 16.4422 27.3253 14H24.4246C23.795 15.9822 21.9289 17.7834 20.1525 17.9545V14H17.2517V20.9267C15.4527 20.5267 13.1817 18.5844 13.0806 14H10Z" fill="#A4A7AE"/>
</svg>
