<svg width="45" height="40" viewBox="0 0 45 40" fill="none" xmlns="http://www.w3.org/2000/svg">
<g clip-path="url(#clip0_6112_21539)">
<g clip-path="url(#clip1_6112_21539)">
<mask id="mask0_6112_21539" style="mask-type:luminance" maskUnits="userSpaceOnUse" x="-190" y="-43" width="427" height="430">
<path d="M-189.079 386.885H236.804V-42.0748H-189.079V386.885Z" fill="white"/>
</mask>
<g mask="url(#mask0_6112_21539)">
<path d="M23.2697 28.1471C22.4004 28.0887 21.3981 27.9352 20.6075 27.7046C20.4594 27.6614 19.8463 27.4344 19.6903 27.3623C16.9381 26.0782 15.0207 23.275 15.0207 20.0229C15.0207 15.5624 18.6236 11.9291 23.0551 11.9291C27.4471 11.9291 31.0257 15.5004 31.0873 19.9105H33.9898C33.9283 13.8891 29.0483 9.00919 23.0551 9.00919C17.0261 9.00919 12.1189 13.9489 12.1189 20.0229C12.1189 24.2104 14.4569 27.8523 17.8803 29.7129C18.4984 30.0423 19.3856 30.3817 19.6868 30.4746C20.6626 30.7672 21.8603 30.9618 22.9263 31.0432C23.2883 31.0706 24.5525 31.085 24.9209 31.0864H44.9088V28.1745H24.9545C24.6891 28.1745 23.5294 28.1644 23.2697 28.1471ZM24.9545 23.5748C24.7435 23.5748 23.6396 23.5676 23.4357 23.5503C23.0901 23.5208 22.5893 23.4689 22.2674 23.3947C21.9039 23.2967 21.5626 23.167 21.4088 23.0819C20.3307 22.4946 19.5959 21.346 19.5959 20.0229C19.5959 18.0982 21.1434 16.5374 23.0551 16.5374C24.9266 16.5374 26.4484 18.037 26.5092 19.9105H29.298C29.2393 16.4876 26.4691 13.7292 23.0551 13.7292C19.6031 13.7292 16.805 16.5467 16.805 20.0229C16.805 22.4745 18.2001 24.5916 20.2319 25.6285C20.5446 25.813 21.1327 26.0061 21.3001 26.0501C21.8739 26.2022 22.6444 26.3059 23.2697 26.352C23.5008 26.3715 24.6326 26.3801 24.8715 26.3816V26.3859H44.9081V23.5748H24.9545ZM10.3303 31.0756H7.40842V11.9356H3.13869V8.99189H10.3303V31.0756ZM-0.0693359 13.4063V16.2369H3.13869V31.0756H5.94607V13.4063H-0.0693359Z" fill="#D91920"/>
<path d="M39.7456 9.19758C38.6931 9.19758 37.8203 10.0428 37.8203 11.1036C37.8203 12.1643 38.6931 13.0435 39.7456 13.0435C40.8302 13.0435 41.6694 12.1643 41.6694 11.1036C41.6694 10.0428 40.8302 9.19758 39.7456 9.19758ZM39.7456 12.7307C38.8763 12.7307 38.1272 12.0425 38.1272 11.1036C38.1272 10.2122 38.8763 9.50672 39.7456 9.50672C40.6141 9.50672 41.3596 10.2122 41.3596 11.1036C41.3596 12.0425 40.6141 12.7307 39.7456 12.7307Z" fill="#D91920"/>
<path d="M40.4784 11.6259C40.4784 11.4119 40.4469 11.213 40.2036 11.1345C40.5084 11.0278 40.5385 10.8268 40.5385 10.705C40.5385 10.2128 40.0949 10.1501 39.9125 10.1501H39.0732V12.0562H39.4231V11.2743H39.6985C40.0949 11.2743 40.1278 11.458 40.1278 11.6259C40.1278 11.9509 40.1278 12.0122 40.2036 12.0562H40.5542C40.4784 11.979 40.5084 11.9192 40.4784 11.6259ZM39.8359 10.9961H39.4231V10.3959H39.7765C40.0212 10.3959 40.1872 10.4737 40.1872 10.705C40.1872 10.8268 40.1278 10.9961 39.8359 10.9961Z" fill="#D91920"/>
</g>
</g>
</g>
<defs>
<clipPath id="clip0_6112_21539">
<rect width="45" height="40" fill="white"/>
</clipPath>
<clipPath id="clip1_6112_21539">
<rect width="45.1406" height="22.0153" fill="white" transform="translate(-0.0703125 8.99219)"/>
</clipPath>
</defs>
</svg>
