<svg width="93" height="40" viewBox="0 0 93 40" fill="none" xmlns="http://www.w3.org/2000/svg">
<g clip-path="url(#clip0_6112_21540)">
<g clip-path="url(#clip1_6112_21540)">
<path d="M63.7398 15.4381C62.8879 15.4381 62.1387 15.5262 61.4699 15.7193C60.808 15.9054 60.2506 16.1928 59.7985 16.5967C59.341 16.9917 58.9939 17.505 58.76 18.1334C58.5224 18.7586 58.4079 19.5129 58.4026 20.3922C58.4026 21.27 58.5259 22.0252 58.76 22.6518C58.9958 23.2839 59.341 23.7925 59.7985 24.1876C60.2561 24.5826 60.8117 24.8718 61.4699 25.065C62.1318 25.2529 62.8847 25.3463 63.7398 25.3463C64.5916 25.3463 65.3417 25.2582 66.0106 25.065C66.6724 24.8772 67.2317 24.5864 67.6893 24.1876C68.1469 23.7926 68.4893 23.2803 68.7269 22.6518C68.9627 22.0266 69.0789 21.2714 69.0789 20.3922C69.0789 19.5143 68.9557 18.76 68.7269 18.1334C68.4858 17.5013 68.1399 16.9854 67.6874 16.5884C67.2299 16.1934 66.6669 15.9037 66.0069 15.7156C65.3468 15.5278 64.5897 15.4363 63.7398 15.4381ZM41.8683 15.5878C40.7858 15.5878 39.8794 15.7579 39.151 16.0968C38.4226 16.4374 37.8716 16.9636 37.5023 17.6764C37.1328 18.3855 36.9495 19.2915 36.9495 20.3851C36.9495 21.4806 37.1347 22.3866 37.5023 23.0938C37.8719 23.803 38.4175 24.3281 39.151 24.6744C39.8794 25.0185 40.7877 25.1885 41.8683 25.1834H43.4869C43.8565 25.1834 44.226 25.1427 44.5958 25.0654C44.9601 24.9865 45.3053 24.8723 45.6343 24.7143C45.9582 24.5563 46.25 24.3636 46.4963 24.1302C46.7427 23.8967 46.9449 23.6212 47.0875 23.3155C47.2283 23.0065 47.3058 22.6594 47.3076 22.2749C47.3076 22.1239 47.2777 21.9987 47.2267 21.9056C47.1739 21.8109 47.1104 21.7369 47.033 21.6843C46.9626 21.6316 46.8814 21.5966 46.8093 21.5791C46.7389 21.5615 46.674 21.5491 46.6283 21.5491H45.836C45.7129 21.5491 45.5895 21.5671 45.4786 21.6145C45.366 21.6601 45.2607 21.7378 45.1622 21.8431C45.0654 21.9484 44.9684 22.0952 44.8857 22.2813C44.7379 22.6043 44.5337 22.8608 44.2626 23.0434C43.9986 23.2277 43.6641 23.3246 43.2541 23.3246H41.9326C41.445 23.3124 41.0406 23.265 40.7184 23.165C40.3964 23.0667 40.143 22.9035 39.9563 22.6804C39.7732 22.4522 39.6329 22.1534 39.5625 21.774C39.4815 21.3983 39.439 20.9362 39.446 20.3852C39.446 19.8338 39.4814 19.3677 39.5588 18.9988C39.6362 18.6214 39.7696 18.3206 39.9544 18.0942C40.1392 17.866 40.3945 17.7079 40.7184 17.6027C41.0405 17.5027 41.445 17.454 41.9326 17.4557H43.1122C43.517 17.4557 43.8508 17.5517 44.1198 17.7361C44.3838 17.9222 44.5959 18.1751 44.7438 18.4982C44.8318 18.6808 44.919 18.832 45.0193 18.9373C45.1196 19.0426 45.2241 19.1193 45.3367 19.165C45.4476 19.2106 45.5647 19.2303 45.6932 19.2303H46.4854C46.5312 19.2303 46.5917 19.2215 46.6673 19.2004C46.7377 19.1828 46.8162 19.1478 46.8901 19.0952C46.9676 19.0425 47.0311 18.9721 47.0839 18.872C47.1366 18.7772 47.1631 18.6529 47.1666 18.5037C47.1647 18.1157 47.0854 17.7701 46.9429 17.4594C46.8003 17.1504 46.6018 16.878 46.3554 16.641C46.1002 16.4128 45.81 16.214 45.4879 16.0614C45.1588 15.9034 44.8172 15.7804 44.4548 15.7049C44.0853 15.6224 43.7158 15.5879 43.346 15.5879L41.8683 15.5878ZM28.335 15.6277C28.2189 15.6277 28.1155 15.6578 28.024 15.7157C27.929 15.7684 27.8546 15.8495 27.7948 15.9443C27.742 16.0408 27.7075 16.1479 27.7075 16.2673V24.4926C27.7075 24.6155 27.7368 24.7207 27.7948 24.8137C27.8476 24.9103 27.9272 24.9888 28.024 25.0415C28.1173 25.1012 28.2173 25.1295 28.3405 25.1295H29.5903C29.7064 25.1295 29.8109 25.0994 29.9077 25.0415C30.0027 24.9888 30.0761 24.9185 30.1359 24.8237C30.1887 24.7307 30.2242 24.6312 30.2242 24.5153V21.304H31.6491C31.9307 21.304 32.1848 21.3641 32.4011 21.48C32.6194 21.5923 32.8163 21.7516 32.9941 21.9535C33.1702 22.1571 33.3461 22.3925 33.51 22.6612L34.6784 24.5046C34.7541 24.6222 34.8486 24.7325 34.9594 24.8202C35.0756 24.9133 35.1976 24.9872 35.3296 25.0416C35.4581 25.0942 35.5809 25.1226 35.6988 25.1296H37.2213C37.3392 25.1296 37.427 25.0996 37.4851 25.0416C37.5449 24.9889 37.573 24.9133 37.566 24.8202C37.566 24.7254 37.5235 24.6204 37.4514 24.5046L35.7801 21.871C35.6851 21.7253 35.5686 21.5733 35.4454 21.4067C35.3152 21.2399 35.1748 21.0815 35.0234 20.9359C34.8756 20.7832 34.7188 20.6547 34.557 20.5458C34.3899 20.437 34.2314 20.3614 34.0676 20.3263C34.3738 20.2561 34.6305 20.1388 34.8468 19.9861C35.058 19.8351 35.2412 19.6611 35.3927 19.4664C35.5423 19.2733 35.6745 19.0703 35.7801 18.8634L37.2236 16.2653C37.3292 16.0775 37.359 15.9266 37.3291 15.809C37.2939 15.6914 37.1933 15.6328 37.0226 15.6275H35.4922C35.3162 15.6275 35.1483 15.6801 34.981 15.7854C34.8138 15.8908 34.665 16.0495 34.5417 16.2672L33.5087 18.0926C33.3327 18.4086 33.1513 18.6652 32.9629 18.8653C32.7746 19.0584 32.5701 19.2059 32.3555 19.2989C32.1443 19.392 31.9031 19.4386 31.646 19.4386H30.21V16.2651C30.2082 16.1493 30.1843 16.0386 30.1245 15.9386C30.0664 15.8508 29.9904 15.7696 29.8971 15.71C29.8038 15.6573 29.6996 15.6292 29.5852 15.6274L28.335 15.6277ZM48.6072 15.6277C48.4893 15.6277 48.384 15.6578 48.2908 15.7157C48.1975 15.7684 48.1234 15.844 48.0689 15.9371C48.0161 16.0319 47.9877 16.1369 47.9806 16.2527V24.5058C47.9806 24.6181 48.0108 24.7231 48.0689 24.8214C48.1216 24.9162 48.1975 24.9921 48.2908 25.05C48.3858 25.1027 48.4928 25.1381 48.6072 25.1381H50.8073C50.9305 25.1381 51.0541 25.108 51.172 25.05C51.2952 24.9974 51.4093 24.918 51.5167 24.8214C51.6223 24.7266 51.7097 24.6234 51.7713 24.5058L55.2397 18.3598V24.5058C55.2397 24.6181 55.2742 24.7231 55.327 24.8214C55.3798 24.9162 55.4593 24.9921 55.5561 25.05C55.6494 25.1027 55.7547 25.1381 55.8726 25.1381H57.041C57.1572 25.1381 57.2607 25.108 57.3575 25.05C57.4525 24.9974 57.5286 24.918 57.5867 24.8214C57.6395 24.7266 57.6749 24.6234 57.6749 24.5058V16.2574C57.6749 16.145 57.6448 16.0384 57.5867 15.9471C57.5339 15.8523 57.4635 15.7782 57.3702 15.7185C57.277 15.6659 57.1763 15.6305 57.0601 15.6305H55.0837C54.9728 15.6305 54.8626 15.6658 54.75 15.7185C54.6338 15.7712 54.5265 15.8523 54.4262 15.9471C54.3206 16.0402 54.2431 16.1396 54.1797 16.2519L50.3948 22.8774V16.2427C50.3929 16.1303 50.3664 16.0264 50.3084 15.9333C50.2521 15.8438 50.1735 15.7683 50.0855 15.7156C49.9905 15.663 49.8843 15.6331 49.7681 15.633L48.6072 15.6277ZM70.4417 15.6277C70.3255 15.6277 70.224 15.6578 70.1325 15.7157C70.0445 15.7684 69.9689 15.8495 69.916 15.9443C69.8633 16.0391 69.8349 16.1478 69.8278 16.2654V24.4908C69.8278 24.6084 69.858 24.7189 69.916 24.8119C69.9688 24.9084 70.0438 24.9869 70.137 25.0396C70.232 25.0993 70.34 25.1276 70.4544 25.1276H71.6511C71.7742 25.1276 71.8796 25.0976 71.9675 25.0396C72.0608 24.987 72.1349 24.9084 72.1894 24.8119C72.2422 24.7171 72.2697 24.6084 72.2767 24.4908V18.0128L74.6178 24.5277C74.6618 24.633 74.7235 24.7384 74.8115 24.8261C74.8995 24.9139 74.9925 24.9892 75.0998 25.0366C75.2054 25.0892 75.3201 25.1175 75.4345 25.1246H76.3847C76.5009 25.1246 76.6138 25.0945 76.7194 25.0366C76.825 24.9839 76.9251 24.9139 77.0096 24.8261C77.0976 24.7383 77.1575 24.633 77.2033 24.5277L79.5443 18.0128V24.4908C79.5443 24.6084 79.5736 24.7189 79.6316 24.8119C79.6844 24.9084 79.7603 24.987 79.8535 25.0396C79.9486 25.0993 80.0556 25.1276 80.17 25.1276H81.3667C81.4898 25.1276 81.596 25.0976 81.684 25.0396C81.7773 24.987 81.8505 24.9084 81.905 24.8119C81.9578 24.7171 81.9933 24.6084 81.9933 24.4908V16.2654C81.9933 16.1478 81.9631 16.0364 81.905 15.9434C81.8346 15.8486 81.7592 15.7681 81.6695 15.7084C81.5762 15.6558 81.4764 15.6276 81.3603 15.6258H78.6564C78.5385 15.6276 78.4209 15.6557 78.3153 15.7084C78.2098 15.7681 78.1126 15.844 78.0334 15.937C77.9524 16.0318 77.8931 16.1368 77.8579 16.2527L75.8972 21.9053L73.9402 16.2527C73.898 16.1368 73.8457 16.0301 73.7647 15.937C73.682 15.844 73.5864 15.7681 73.4755 15.7084C73.3699 15.6558 73.2597 15.6276 73.1417 15.6258L70.4417 15.6277ZM88.5508 15.6277C88.0669 15.6277 87.5903 15.6627 87.1258 15.7329C86.6613 15.8084 86.2287 15.9388 85.8326 16.1266C85.4349 16.3144 85.0931 16.5779 84.794 16.9169C84.5019 17.2504 84.2837 17.6836 84.1428 18.2069L82.4715 24.5188C82.4415 24.6312 82.4362 24.736 82.4715 24.8273C82.4996 24.9151 82.5542 24.9906 82.637 25.045C82.7161 25.0977 82.813 25.126 82.9362 25.133H84.2387C84.3619 25.133 84.467 25.103 84.5779 25.045C84.6835 24.9924 84.7806 24.9167 84.8598 24.8237C84.939 24.7289 84.9946 24.6238 85.0263 24.508L85.4755 22.8408H90.19V24.508C90.19 24.6256 90.22 24.7359 90.2728 24.8237C90.3256 24.9167 90.4032 24.9906 90.4947 25.045C90.5897 25.0977 90.695 25.126 90.8112 25.133H92.061C92.1771 25.133 92.2806 25.103 92.3774 25.045C92.4725 24.9924 92.5468 24.9221 92.6066 24.8273C92.6594 24.7343 92.6948 24.6347 92.6948 24.5188V16.2382C92.6948 16.1276 92.6696 16.0275 92.6239 15.9397C92.5711 15.8467 92.5064 15.7745 92.4202 15.7184C92.3322 15.6657 92.2391 15.6304 92.1283 15.6304L88.5508 15.6277ZM63.7351 17.2253L63.737 17.2271C64.4146 17.2271 64.9623 17.3496 65.3797 17.5954C65.802 17.8412 66.1011 18.1929 66.2943 18.6669C66.4879 19.1409 66.5763 19.7094 66.5763 20.3871C66.5763 21.0667 66.488 21.6412 66.2943 22.1083C66.1008 22.5822 65.8016 22.9331 65.3797 23.1789C64.9626 23.4176 64.4113 23.5408 63.737 23.5408C63.0557 23.5408 62.5108 23.4176 62.0952 23.1771C61.6764 22.933 61.3723 22.5754 61.1805 22.1065C60.9887 21.6394 60.8915 21.0649 60.8968 20.3853C60.8968 19.7057 60.9851 19.1322 61.1787 18.6651C61.3723 18.1981 61.6714 17.8403 62.0934 17.5945C62.5158 17.3487 63.0608 17.2253 63.7351 17.2253ZM88.3012 17.4974H90.1912V20.9665H85.9676L86.5476 18.8299C86.618 18.556 86.7415 18.3209 86.9105 18.1222C87.0759 17.922 87.2804 17.7712 87.516 17.6659C87.7536 17.5605 88.0138 17.5007 88.3008 17.5007L88.3012 17.4974ZM53.0074 26.8017C52.842 26.8017 52.7016 26.83 52.5854 26.8897C52.4675 26.9494 52.373 27.03 52.3026 27.1301C52.2322 27.2354 52.185 27.3495 52.1498 27.4812C52.1198 27.6163 52.1025 27.7571 52.1025 27.8975C52.1025 28.0608 52.1201 28.2058 52.1552 28.3357C52.1905 28.4674 52.2431 28.5818 52.3135 28.6696C52.3892 28.7574 52.4828 28.8274 52.5954 28.8801C52.7116 28.931 52.8474 28.9563 53.0111 28.9563C53.1536 28.9563 53.2838 28.9282 53.3894 28.8756C53.4985 28.8229 53.5918 28.7472 53.6622 28.6524C53.7379 28.5594 53.7907 28.443 53.8259 28.3131C53.8611 28.1832 53.8787 28.0432 53.8787 27.8922L53.8824 27.8867C53.8824 27.7393 53.8686 27.6056 53.8405 27.4758C53.8141 27.3458 53.7699 27.2302 53.6995 27.1301C53.6327 27.0301 53.543 26.9494 53.4304 26.8897C53.3159 26.8318 53.1746 26.8017 53.0074 26.8017ZM31.7923 26.8034C31.6691 26.8034 31.5618 26.821 31.4685 26.8561C31.3752 26.8912 31.297 26.9385 31.2266 26.9912C31.1615 27.0439 31.1023 27.1143 31.0566 27.1845C31.0108 27.2599 30.9738 27.3351 30.9456 27.4176C30.9175 27.4984 30.898 27.581 30.8874 27.6635C30.8751 27.7424 30.8701 27.8257 30.8701 27.9011C30.8701 28.0592 30.8823 28.203 30.9174 28.333C30.9526 28.4629 31.0053 28.5729 31.0757 28.6659C31.1461 28.759 31.2432 28.8292 31.3576 28.8818C31.4703 28.9345 31.6124 28.9589 31.7796 28.9589C31.8324 28.9589 31.8851 28.9578 31.9379 28.9526C31.9907 28.9526 32.0433 28.9433 32.0961 28.9344C32.1489 28.9221 32.2005 28.9122 32.248 28.8999C32.292 28.8877 32.3356 28.8767 32.3708 28.8591L32.318 28.675C32.274 28.6925 32.2337 28.7016 32.1862 28.7104C32.1334 28.7156 32.091 28.7277 32.0452 28.733C32.0047 28.7436 31.9574 28.7503 31.917 28.7503C31.8712 28.7555 31.8379 28.7557 31.8115 28.7557C31.6778 28.7557 31.5648 28.7343 31.4768 28.6904C31.3888 28.65 31.3186 28.5871 31.2658 28.5098C31.2131 28.4344 31.1779 28.3467 31.1604 28.2413C31.141 28.136 31.1304 28.0304 31.1304 27.9075C31.1304 27.7723 31.1432 27.6497 31.1713 27.5392C31.1977 27.4286 31.2413 27.3352 31.294 27.2579C31.3468 27.1824 31.417 27.1232 31.505 27.0828C31.593 27.039 31.6898 27.0212 31.8042 27.0212C31.8693 27.0212 31.9396 27.0296 32.0152 27.0384C32.0909 27.0437 32.1673 27.0629 32.2553 27.091L32.308 26.8987C32.2429 26.8741 32.1669 26.8564 32.0789 26.8388C31.9909 26.8212 31.8886 26.8125 31.7742 26.8125L31.7923 26.8034ZM42.0162 26.8207C41.9599 26.8207 41.9033 26.8246 41.8452 26.8316C41.7819 26.8386 41.7216 26.844 41.6688 26.8615C41.616 26.872 41.5634 26.8893 41.5106 26.9069C41.463 26.9244 41.4103 26.9419 41.375 26.9595L41.446 27.1355C41.5621 27.0863 41.6674 27.0559 41.7625 27.0384C41.8575 27.0226 41.9388 27.0157 41.9916 27.0157C42.1324 27.0157 42.2374 27.0338 42.3254 27.0865C42.4116 27.1357 42.4536 27.2193 42.4536 27.3369C42.4536 27.3896 42.4367 27.4319 42.4191 27.4775C42.3962 27.5302 42.3659 27.5658 42.3254 27.6009C42.2796 27.636 42.2342 27.6659 42.1744 27.6835C42.1146 27.7028 42.0454 27.7134 41.968 27.7134H41.7216V27.8976H41.9771C42.0545 27.8976 42.123 27.9081 42.1881 27.9257C42.2515 27.9433 42.3098 27.9677 42.3573 28.0028C42.4065 28.0326 42.4437 28.0726 42.4719 28.1252C42.4947 28.1779 42.5118 28.238 42.5118 28.3012C42.5118 28.4469 42.4592 28.5569 42.3536 28.6342C42.248 28.7131 42.09 28.7485 41.8789 28.7485C41.8155 28.7485 41.745 28.7435 41.657 28.7312C41.569 28.7224 41.4667 28.6956 41.3523 28.6605L41.2905 28.8419C41.3855 28.877 41.491 28.9123 41.6142 28.9299C41.7374 28.9492 41.8536 28.958 41.9662 28.958C42.0806 28.958 42.1851 28.9434 42.2836 28.9172C42.3839 28.8909 42.4715 28.8474 42.5419 28.7947C42.6123 28.7403 42.6743 28.6696 42.7183 28.5888C42.7658 28.5063 42.7829 28.4118 42.7829 28.3013C42.7829 28.1678 42.7477 28.0552 42.6774 27.9674C42.607 27.8744 42.5125 27.822 42.3964 27.7869L42.3991 27.7832C42.4519 27.7569 42.4996 27.7303 42.5401 27.6952C42.5841 27.6619 42.6175 27.6231 42.6456 27.5827C42.6737 27.5476 42.6916 27.5041 42.7092 27.4602C42.7198 27.4181 42.7265 27.3744 42.7265 27.3305C42.7265 27.234 42.7089 27.1578 42.6738 27.0928C42.6368 27.0226 42.5861 26.9753 42.521 26.935C42.4506 26.8928 42.3798 26.8654 42.2918 26.8479C42.2091 26.8303 42.1148 26.8207 42.0162 26.8207ZM36.1555 26.8425V28.9417H36.412V28.0818H36.8694C36.9873 28.0818 37.0877 28.0604 37.1686 28.0183C37.2496 27.9744 37.3148 27.9237 37.3623 27.8604C37.4098 27.7972 37.4448 27.7274 37.4623 27.6572C37.4799 27.5835 37.4905 27.5145 37.4905 27.4513L37.4996 27.4477C37.4996 27.3494 37.4875 27.2618 37.4523 27.1846C37.4224 27.1056 37.3749 27.044 37.3168 26.9914C37.2552 26.9405 37.185 26.9034 37.1058 26.8771C37.0266 26.8543 36.9379 26.8426 36.8411 26.8426L36.1555 26.8425ZM44.1608 26.8425V28.9435H44.4209V28.0836H44.8784C44.9963 28.0836 45.0966 28.0623 45.1776 28.0202C45.2586 27.9763 45.3238 27.9255 45.3713 27.8623C45.4188 27.7991 45.4538 27.7293 45.4713 27.6591C45.4889 27.5854 45.4995 27.5163 45.4995 27.4532L45.505 27.4477C45.505 27.3494 45.4928 27.2619 45.4577 27.1847C45.4277 27.1057 45.3803 27.0441 45.3222 26.9914C45.2606 26.9405 45.1922 26.9035 45.1112 26.8771C45.032 26.8543 44.9433 26.8427 44.8465 26.8427L44.1608 26.8425ZM49.3791 26.8425V28.9361H50.1801C50.2751 28.9361 50.3573 28.9224 50.4329 28.8944C50.5104 28.8663 50.5811 28.8237 50.6339 28.771C50.6919 28.7184 50.7323 28.6523 50.7676 28.5733C50.7975 28.4925 50.8148 28.4046 50.8148 28.2993C50.8148 28.2168 50.8014 28.1355 50.7749 28.0653C50.7485 27.9933 50.704 27.9301 50.6512 27.8775C50.5984 27.8248 50.5282 27.7849 50.4402 27.755C50.3557 27.7269 50.2569 27.7097 50.1337 27.7097H49.6364V27.0319H50.6093L50.6112 26.8423L49.3791 26.8425ZM55.0919 26.8425V27.0457H55.776V28.9365L56.0243 28.9437V27.0478H56.6926V26.8428L55.0919 26.8425ZM57.9941 26.8425V28.9361L58.2633 28.9379V27.9254H58.6416C58.6768 27.9254 58.7221 27.9339 58.7644 27.9427C58.8101 27.955 58.8528 27.9707 58.8881 27.9953C58.9233 28.0216 58.9584 28.0549 58.9935 28.1005C59.0252 28.1462 59.055 28.2063 59.0727 28.2765L59.2537 28.9432H59.5092L59.3228 28.2055C59.2981 28.1072 59.2571 28.0246 59.1991 27.9597C59.1375 27.8894 59.0582 27.8463 58.9526 27.82C59.0248 27.7954 59.0863 27.7495 59.1391 27.6793C59.1901 27.6091 59.2291 27.5207 59.2555 27.4153L59.391 26.8473H59.1446L59.0036 27.3826C58.986 27.4581 58.9635 27.5156 58.9336 27.5577C58.9037 27.6051 58.8733 27.6356 58.8381 27.6584C58.8029 27.6812 58.7678 27.6967 58.7326 27.7038C58.6974 27.7143 58.6623 27.7137 58.6271 27.7137H58.2579V26.8419L57.9941 26.8425ZM77.1478 26.8443L77.1305 27.1772C77.1182 27.372 77.1081 27.5535 77.0905 27.7116C77.0747 27.8748 77.0551 28.0198 77.0287 28.1498C77.0023 28.2832 76.9672 28.3962 76.9232 28.4945C76.8792 28.5945 76.8172 28.6819 76.7468 28.7521H76.5603V29.4488H76.7659V28.9398L78.3327 28.9452V29.4542H78.5383V28.752H78.3273V26.8442L77.1478 26.8443ZM82.5371 26.8443V28.9379H83.8641V28.7402H82.7955V27.9255H83.6575V27.7323H82.7955V27.0374H83.8169V26.8442L82.5371 26.8443ZM85.2299 26.8443V28.9379H85.5054V27.9374H86.4913V28.9379H86.7432V26.8443H86.4786V27.7217H85.4936V26.8443H85.2299ZM91.2524 26.8443V28.9379H92.5794V28.7402H91.5108V27.9255H92.3728V27.7323H91.5108V27.0374H92.5313V26.8442L91.2524 26.8443ZM71.0818 26.8461V28.9397H71.3456V27.9392H72.3315V28.9397H72.5952V26.8461H72.3315V27.7235H71.3456V26.8461H71.0818ZM74.0668 26.8461V28.9397H75.3937V28.742H74.3251V27.9273H75.1881V27.7341H74.3251V27.0383H75.3466V26.846L74.0668 26.8461ZM39.1566 26.8479C39.051 27.1639 38.938 27.4975 38.8219 27.8484C38.7057 28.1924 38.5831 28.557 38.4599 28.936H38.7237C38.7589 28.8447 38.7837 28.7498 38.8119 28.662C38.8418 28.5708 38.8711 28.4767 38.8992 28.389H39.727C39.7569 28.4802 39.7871 28.5743 39.8153 28.662C39.8504 28.7533 39.8753 28.8482 39.9035 28.936L40.1772 28.9433L39.4913 26.8477L39.1566 26.8479ZM47.1665 26.8479C47.061 27.1639 46.948 27.4975 46.8319 27.8484C46.7157 28.1924 46.5922 28.557 46.469 28.936H46.7336C46.7689 28.8447 46.7928 28.7498 46.821 28.662C46.8509 28.5708 46.881 28.4767 46.9092 28.389H47.737C47.7669 28.4802 47.7962 28.5743 47.8243 28.662C47.8595 28.7533 47.8843 28.8482 47.9125 28.936L48.1872 28.9433L47.5003 26.8477L47.1665 26.8479ZM61.2637 26.8479C61.1582 27.1639 61.0452 27.4975 60.9291 27.8484C60.8129 28.1924 60.6903 28.557 60.5671 28.936H60.8308C60.8661 28.8447 60.8909 28.7498 60.9191 28.662C60.949 28.5708 60.9791 28.4767 61.0073 28.389H61.8341C61.8641 28.4802 61.8942 28.5743 61.9224 28.662C61.9576 28.7533 61.9824 28.8482 62.0106 28.936L62.2843 28.9433L61.5984 26.8477L61.2637 26.8479ZM64.3785 26.8479V28.936H64.6359L65.6735 27.2407H65.679V28.936H65.9345V26.8479H65.6899L64.6458 28.5326H64.6376V26.8479H64.3785ZM68.2398 26.8479L68.2343 28.9471H69.0718C69.1546 28.9471 69.2306 28.9325 69.301 28.9062C69.3731 28.8782 69.4365 28.8437 69.4892 28.791C69.5473 28.7401 69.5823 28.6798 69.6174 28.6096C69.6474 28.5394 69.6647 28.4642 69.6647 28.3764C69.6647 28.3343 69.658 28.2885 69.6474 28.2358C69.6404 28.1884 69.6211 28.1361 69.5947 28.0834C69.5683 28.0307 69.5332 27.9849 69.4892 27.9428C69.4417 27.8989 69.3887 27.8694 69.3183 27.8466C69.4309 27.7886 69.5052 27.723 69.5474 27.6352C69.5932 27.5509 69.6102 27.469 69.6102 27.3812C69.6102 27.311 69.6021 27.2357 69.5757 27.1707C69.5493 27.1058 69.5139 27.0476 69.4611 27.0002C69.4083 26.951 69.3448 26.914 69.2674 26.8877C69.19 26.8649 69.102 26.8478 68.9963 26.8478L68.2398 26.8479ZM79.8549 26.8479V28.9434H80.1187V28.0835H80.5761C80.694 28.0835 80.7943 28.0621 80.8753 28.02C80.9563 27.9761 81.0215 27.9254 81.069 27.8621C81.1166 27.7989 81.1514 27.7291 81.1691 27.659C81.1902 27.5852 81.1991 27.5162 81.1991 27.453C81.1991 27.3547 81.1869 27.2672 81.1518 27.19C81.1218 27.111 81.0744 27.0494 81.0163 26.9967C80.9546 26.9458 80.8845 26.9088 80.8053 26.8824C80.7261 26.8596 80.6374 26.848 80.5406 26.848L79.8549 26.8479ZM88.23 26.8488V28.9378H88.4874L89.525 27.2425H89.5305V28.9378H89.786V26.8488H89.5414L88.4973 28.5344H88.4891V26.8488H88.23ZM28.7445 26.9105L28.2689 27.0103V27.1863L28.7264 27.1509V28.9472H28.9728V26.9107L28.7445 26.9105ZM52.9963 27.0021H52.9972C53.1275 27.0021 53.2263 27.032 53.3037 27.0847C53.3794 27.1374 53.4425 27.2074 53.4847 27.2952C53.5287 27.383 53.5553 27.4792 53.573 27.5846C53.5888 27.6899 53.5957 27.7958 53.5957 27.9012H53.5848C53.5848 28.0188 53.5732 28.1288 53.5503 28.2341C53.5326 28.3377 53.4976 28.429 53.4448 28.5063C53.399 28.5853 53.334 28.6448 53.2583 28.6904C53.1879 28.7378 53.1002 28.7612 52.9946 28.7612C52.7728 28.7612 52.6066 28.6892 52.5079 28.5435C52.4129 28.3978 52.3605 28.1866 52.3605 27.9059C52.3605 27.7917 52.3702 27.6782 52.3878 27.5729C52.4072 27.4641 52.4385 27.3704 52.486 27.2826C52.5336 27.2019 52.597 27.1321 52.6797 27.0794C52.7677 27.0285 52.8731 27.0021 52.9963 27.0021ZM77.3683 27.0284H78.0611V28.7487H77.0142C77.0688 28.6872 77.1145 28.6172 77.1497 28.5382C77.185 28.461 77.2151 28.3628 77.2379 28.2452C77.2643 28.1328 77.2813 27.9901 77.2988 27.8234C77.3165 27.6583 77.334 27.4571 77.3516 27.2203L77.3683 27.0284ZM36.3986 27.0402L36.7969 27.042C36.8497 27.042 36.9024 27.0491 36.9552 27.0665C37.0045 27.0841 37.05 27.1094 37.0852 27.1445C37.1204 27.1796 37.1559 27.2234 37.1735 27.2761C37.1928 27.3287 37.2035 27.3918 37.2035 27.4621C37.2035 27.5428 37.1908 27.6126 37.168 27.6653C37.1504 27.7197 37.115 27.7599 37.0798 27.795C37.0446 27.8301 37.0045 27.8482 36.957 27.8658C36.913 27.8763 36.8688 27.883 36.8161 27.883H36.3986L36.3986 27.0402ZM44.4086 27.0402L44.806 27.042C44.8588 27.042 44.9114 27.0491 44.9642 27.0665C45.0135 27.0841 45.06 27.1094 45.0952 27.1445C45.1304 27.1796 45.1649 27.2234 45.1825 27.2761C45.2019 27.3287 45.2125 27.3918 45.2125 27.4621C45.2125 27.5428 45.2009 27.6126 45.178 27.6653C45.1604 27.7197 45.125 27.7599 45.0898 27.795C45.0546 27.8301 45.0136 27.8482 44.9661 27.8658C44.9221 27.8763 44.8788 27.883 44.826 27.883H44.4086L44.4086 27.0402ZM80.1045 27.042L80.4974 27.0438C80.5502 27.0438 80.6028 27.0508 80.6556 27.0683C80.7049 27.0859 80.7505 27.1103 80.7857 27.1454C80.8209 27.1805 80.8563 27.2252 80.8739 27.2779C80.8985 27.3305 80.9084 27.3936 80.9084 27.4639C80.9084 27.5446 80.8968 27.6144 80.8739 27.6671C80.8563 27.7215 80.8209 27.7617 80.7857 27.7968C80.7505 27.8319 80.7095 27.85 80.662 27.8676C80.618 27.8781 80.5748 27.8848 80.522 27.8848H80.1046L80.1045 27.042ZM68.4847 27.0475H68.9249C69.0709 27.0475 69.1772 27.077 69.2423 27.1472C69.3039 27.2104 69.3387 27.2986 69.3387 27.404V27.4076C69.3387 27.5147 69.3036 27.6002 69.2332 27.6634C69.1628 27.7231 69.0604 27.7587 68.9249 27.7587H68.4848L68.4847 27.0475ZM39.3105 27.0547H39.3196L39.3805 27.2598C39.4263 27.4125 39.474 27.5653 39.5215 27.7231C39.5672 27.8794 39.6149 28.0323 39.6624 28.1902H38.9585C38.9849 28.1006 39.013 28.0142 39.0376 27.9353C39.0623 27.858 39.0848 27.783 39.1077 27.7075C39.1341 27.6321 39.1557 27.5564 39.1786 27.4862C39.2032 27.4142 39.2257 27.3403 39.2486 27.2648L39.3105 27.0547ZM47.3205 27.0547H47.3295L47.3914 27.2598C47.4371 27.4125 47.4848 27.5653 47.5323 27.7231C47.5781 27.8794 47.6258 28.0323 47.6733 28.1902H46.9694C46.9958 28.1006 47.0239 28.0142 47.0485 27.9353C47.0731 27.858 47.0956 27.783 47.1185 27.7075C47.1449 27.6321 47.1666 27.5564 47.1895 27.4862C47.2141 27.4142 47.2366 27.3403 47.2595 27.2648L47.3205 27.0547ZM61.4176 27.0547H61.4267L61.4876 27.2598C61.5334 27.4125 61.5811 27.5653 61.6286 27.7231C61.6761 27.8794 61.7221 28.0323 61.7696 28.1902H61.0656C61.092 28.1006 61.1201 28.0142 61.1448 27.9353C61.1694 27.858 61.1919 27.783 61.2148 27.7075C61.2412 27.6321 61.2629 27.5564 61.2857 27.4862C61.3104 27.4142 61.3329 27.3403 61.3558 27.2648L61.4176 27.0547ZM33.764 27.6725C33.72 27.6725 33.6856 27.688 33.6503 27.7179C33.6204 27.746 33.6021 27.7866 33.6021 27.8341C33.6021 27.8797 33.6197 27.9151 33.6549 27.9502C33.683 27.9853 33.7273 28.0028 33.7713 28.0028C33.8153 28.0028 33.8507 27.9907 33.8859 27.9556C33.9211 27.9258 33.9386 27.8851 33.9386 27.8377L33.9295 27.8341C33.9295 27.7884 33.9174 27.753 33.8822 27.7179C33.8523 27.6898 33.8116 27.6725 33.764 27.6725ZM49.6268 27.8921H50.1015C50.1614 27.8921 50.2197 27.8972 50.2725 27.9148C50.3253 27.9323 50.373 27.9495 50.4135 27.9846C50.4592 28.0162 50.4871 28.0608 50.5117 28.1135C50.5346 28.1661 50.5472 28.2312 50.5472 28.3067C50.5472 28.3787 50.5293 28.4418 50.5117 28.4945C50.4888 28.5471 50.4587 28.5991 50.4235 28.6342C50.383 28.6746 50.348 28.7046 50.2952 28.7222C50.2477 28.7415 50.1951 28.7521 50.137 28.7521H49.6267L49.6268 27.8921ZM68.4847 27.9538H68.9774C69.0478 27.9538 69.1093 27.9706 69.162 27.9883C69.2148 28.0111 69.2596 28.0412 69.2948 28.0763C69.3301 28.1114 69.3563 28.1523 69.374 28.1997C69.3916 28.2471 69.4003 28.294 69.4003 28.3467H69.3949C69.3949 28.3993 69.3897 28.4508 69.3721 28.4982C69.3598 28.5438 69.3363 28.5855 69.3012 28.6206C69.2677 28.6557 69.2239 28.6911 69.1711 28.7086C69.1183 28.7332 69.0531 28.7431 68.9774 28.7431H68.4847L68.4847 27.9538ZM33.7733 28.6412C33.7293 28.6412 33.6939 28.6534 33.6587 28.6884C33.6288 28.72 33.6114 28.7571 33.6114 28.8027C33.6114 28.8483 33.6236 28.8837 33.6587 28.9188C33.6886 28.954 33.7294 28.9714 33.7769 28.9714C33.8245 28.9714 33.8653 28.9539 33.8952 28.9188C33.9216 28.8908 33.9388 28.8483 33.9388 28.8027C33.9388 28.7588 33.9267 28.7235 33.8915 28.6884C33.8616 28.6586 33.8208 28.6412 33.7733 28.6412Z" fill="#0090E9"/>
<path d="M13.6416 33.2948C21.0214 33.2948 27.0039 27.3271 27.0039 19.9655C27.0039 12.604 21.0214 6.63623 13.6416 6.63623C6.2618 6.63623 0.279297 12.604 0.279297 19.9655C0.279297 27.3271 6.2618 33.2948 13.6416 33.2948Z" fill="white"/>
<path d="M16.1001 8.79313C18.6574 9.35285 20.9466 10.7666 22.5889 12.8006C24.2312 14.8345 25.1282 17.3668 25.1316 19.9785C25.1225 22.4785 24.2946 24.9071 22.7739 26.8944L22.051 26.5253C21.2727 20.0105 18.8808 14.5193 15.7743 9.57209C15.8828 9.31247 15.9918 9.0534 16.1016 8.79474L16.1001 8.79313ZM17.4928 27.8396C14.903 28.129 12.3346 28.1335 9.79245 27.8539C9.59195 28.747 9.40564 29.6423 9.2355 30.54C10.6323 31.123 12.1308 31.4249 13.6449 31.4285C15.159 31.4249 16.6575 31.123 18.0543 30.54C17.8832 29.6377 17.6958 28.7377 17.4941 27.8401L17.4928 27.8396ZM13.6431 14.9806C12.599 17.8189 11.6519 20.7116 10.8444 23.6439C12.6997 23.7216 14.5675 23.7352 16.4509 23.6751C15.6416 20.734 14.6913 17.8288 13.6435 14.9795L13.6431 14.9806ZM11.1818 8.7793C8.62453 9.33901 6.33539 10.7528 4.6931 12.7868C3.05081 14.8207 2.15377 17.353 2.15039 19.9647C2.15947 22.4647 2.9874 24.8933 4.50809 26.8806L5.23097 26.5115C6.00932 19.9967 8.40122 14.5055 11.5077 9.55826C11.3992 9.29864 11.2901 9.03957 11.1804 8.78091L11.1818 8.7793Z" fill="#0090E9"/>
</g>
</g>
<defs>
<clipPath id="clip0_6112_21540">
<rect width="93" height="40" fill="white"/>
</clipPath>
<clipPath id="clip1_6112_21540">
<rect width="93.365" height="27.7322" fill="white" transform="translate(-0.182617 6.13379)"/>
</clipPath>
</defs>
</svg>
