<svg width="124" height="57" viewBox="0 0 124 57" fill="none" xmlns="http://www.w3.org/2000/svg">
<g clip-path="url(#clip0_6112_21546)">
<path d="M12.0579 18.6779H14.8274C15.6582 18.6779 16.2736 18.8307 16.6121 19.0904C16.9044 19.3348 17.0583 19.7472 17.0583 20.3429C17.0583 20.9997 16.5659 23.8103 16.4582 24.3602C16.3505 24.8948 16.1505 25.3531 15.8736 25.7349C15.5966 26.1168 15.212 26.4223 14.7043 26.6361C14.1965 26.8653 13.5042 26.9875 12.658 26.9875H10.3501L12.0579 18.6779ZM20.0585 28.2705C20.4893 27.629 20.8431 26.9569 21.1201 26.2543C21.3816 25.5516 21.5663 24.8184 21.674 24.0852C21.7817 23.3673 22.2586 20.4651 22.2586 19.793C22.2586 18.7849 22.1202 17.9142 21.8432 17.2116C21.5509 16.4784 21.1201 15.8674 20.5662 15.4091C20.0123 14.9509 19.3354 14.6148 18.5353 14.4163C17.766 14.233 16.8737 14.1261 15.889 14.1261H8.02691L3.50353 35.7858H8.4731L9.36546 31.5546H13.0272C14.1812 31.5546 15.1966 31.4172 16.089 31.1269C16.966 30.852 17.7506 30.4548 18.3968 29.966C19.0584 29.4773 19.6123 28.9121 20.0585 28.2705Z" fill="#00768D"/>
<path d="M33.0443 26.9722H28.8594L32.352 20.3124L33.0443 26.9722ZM30.4903 14.1261L19.0896 35.7858H24.2591L26.4901 31.5699H33.5213L33.9675 35.7858H38.8909L36.4753 14.1261H30.4903Z" fill="#00768D"/>
<path d="M47.4223 26.6112L50.0379 14.1011H45.3453L40.8219 35.7608H45.9453L55.8075 22.319L53.0073 35.7608H57.7307L62.2541 14.1011H56.7307L47.4223 26.6112Z" fill="#00768D"/>
<path d="M81.6154 14.1261H64.2758L63.2757 18.8765H69.4607L65.9374 35.7858H70.907L74.4303 18.8765H80.6153L81.6154 14.1261Z" fill="#00768D"/>
<path d="M117.419 14.1261L117.311 14.401C116.819 15.5772 116.357 16.6158 115.942 17.4865C115.526 18.3572 115.142 19.1056 114.788 19.7166C114.449 20.3276 114.126 20.8317 113.834 21.2136C113.557 21.5954 113.295 21.9009 113.049 22.0995C112.834 22.2981 112.618 22.4356 112.434 22.4967C112.249 22.573 112.065 22.6036 111.895 22.6036H110.264L112.034 14.1261H107.049L102.541 35.7858H107.51L109.326 27.0486H111.265C111.818 27.0486 112.234 27.186 112.542 27.461C112.849 27.7665 113.111 28.2553 113.28 28.8968C113.465 29.5995 113.603 30.4854 113.68 31.5546C113.757 32.6391 113.834 33.9222 113.911 35.3733L113.942 35.7858H118.803L118.788 35.3275C118.727 33.8459 118.665 32.517 118.588 31.3561C118.527 30.1952 118.388 29.1565 118.188 28.2858C117.988 27.3999 117.696 26.6209 117.326 25.9793C117.05 25.5211 116.711 25.0934 116.296 24.7421C116.65 24.4977 116.988 24.2074 117.326 23.8867C117.85 23.3826 118.373 22.7105 118.911 21.9009C119.434 21.0914 120.004 20.0985 120.573 18.9376C121.157 17.7767 121.804 16.3714 122.511 14.737L122.773 14.1261H117.419Z" fill="#00768D"/>
<path d="M51.6908 7.87855H60.2914L56.6296 12.8123H50.66L51.6908 7.87855Z" fill="#00768D"/>
<path d="M82.724 18.8613H101.648L105.172 14.1261H83.7241L82.724 18.8613Z" fill="url(#paint0_linear_6112_21546)"/>
<path d="M79.2625 35.7855H100.556L101.51 31.0503H80.2626L79.2625 35.7855Z" fill="url(#paint1_linear_6112_21546)"/>
<path d="M80.9092 27.5679H94.0639L97.7411 22.6341H81.94L80.9092 27.5679Z" fill="url(#paint2_linear_6112_21546)"/>
<path d="M120.849 48.7305L122.472 41.0096H2.28546L0.662777 48.7305H120.849Z" fill="#00768D"/>
<path d="M5.67952 46.0884H7.2824L8.00469 42.6797H8.99413L8.27184 46.0884H9.02381L8.48951 47.9646H7.61881L7.8167 47.0117H4.5021L5.41237 42.6797H6.40181L5.67952 46.0884Z" fill="#FEFEFE"/>
<path d="M13.3876 47.0117H12.4179L13.0116 44.1532C12.2992 45.1159 11.5472 46.0982 10.8051 47.0117H9.51887L10.4193 42.6797H11.3889L10.7656 45.6463C11.5571 44.6738 12.3487 43.6621 13.0907 42.6797H14.2978L13.3876 47.0117Z" fill="#FEFEFE"/>
<path d="M17.6903 43.996L17.3341 45.6856C18.086 45.6561 18.2246 45.4597 18.3532 44.831C18.4818 44.2121 18.4323 44.0157 17.6903 43.996ZM16.3545 45.6856L16.7107 43.996C16.0181 44.0255 15.8598 44.222 15.7312 44.831C15.6026 45.44 15.6718 45.6561 16.3545 45.6856ZM17.9673 42.6797L17.8684 43.1807C19.2832 43.2495 19.6098 43.721 19.3723 44.831C19.1447 45.9508 18.6203 46.4223 17.1659 46.4911L17.0669 47.0117H16.0775L16.1764 46.5009C14.7714 46.4223 14.5043 45.9508 14.7318 44.831C14.9693 43.721 15.4344 43.2495 16.8789 43.1807L16.9878 42.6797H17.9673Z" fill="#FEFEFE"/>
<path d="M22.3327 44.831C22.59 44.831 22.7977 44.6542 22.8967 44.2023C22.9956 43.7308 22.8868 43.5344 22.6196 43.5344H21.5511L21.2839 44.831H22.3327ZM19.8393 47.0117L20.7496 42.6797H23.1342C24.0049 42.6797 24.1632 43.3084 23.9851 44.2023C23.8169 44.9882 23.3122 45.6561 22.5108 45.6561H21.1058L20.8288 47.0117H19.8393Z" fill="#FEFEFE"/>
<path d="M27.5761 44.8114C27.8136 43.6326 27.6849 43.4951 26.8241 43.4951C25.9633 43.4951 25.7654 43.6326 25.528 44.8114C25.2707 46.0098 25.3993 46.1866 26.2601 46.1866C27.121 46.1866 27.3188 46.0098 27.5761 44.8114ZM28.6249 44.8016C28.2489 46.5795 27.4376 47.1002 26.0721 47.1002C24.6968 47.1002 24.0933 46.5795 24.4693 44.8016C24.8354 43.0432 25.6368 42.5717 27.0121 42.5717C28.3775 42.5717 28.991 43.0432 28.6249 44.8016Z" fill="#FEFEFE"/>
<path d="M30.6821 44.3497H31.8497C32.0377 44.3497 32.1465 44.2416 32.2158 43.9371C32.2751 43.6424 32.2158 43.5344 32.0278 43.5344H30.8602L30.6821 44.3497ZM31.5034 46.1571C31.7112 46.1571 31.8497 46.0196 31.9189 45.6758C31.9882 45.3221 31.9091 45.165 31.6914 45.165H30.5139L30.3062 46.1571H31.5034ZM32.9479 45.8428C32.7698 46.7072 32.2751 47.0117 31.5825 47.0117H29.1485L30.0489 42.6797H32.473C33.3239 42.6797 33.4625 43.0432 33.314 43.721C33.1953 44.3202 32.9776 44.664 32.196 44.7328C32.9974 44.7622 33.0964 45.165 32.9479 45.8428Z" fill="#FEFEFE"/>
<path d="M37.6278 47.0117H36.6582L37.2518 44.1532C36.5493 45.1159 35.7875 46.0982 35.0553 47.0117H33.7591L34.6694 42.6797H35.6292L35.0058 45.6463C35.7974 44.6738 36.5988 43.6621 37.331 42.6797H38.5381L37.6278 47.0117Z" fill="#FEFEFE"/>
<path d="M40.0129 44.3301H40.7352C41.1507 44.3301 41.3288 44.2515 41.408 43.9077C41.4673 43.5835 41.3189 43.4853 40.6065 43.4853C40.3097 43.4853 39.7556 43.5344 39.4984 43.6031V42.7289C39.904 42.6405 40.5373 42.5717 41.0221 42.5717C42.2886 42.5717 42.6745 42.8762 42.4964 43.7014C42.3677 44.3006 42.1501 44.664 41.3783 44.7328C42.1698 44.7623 42.2787 45.1748 42.1402 45.8428C41.9423 46.776 41.3288 47.1002 40.0821 47.1002C39.6369 47.1002 38.974 47.0314 38.598 46.943L38.9641 46.0589C39.1916 46.1375 39.7457 46.1768 40.0426 46.1768C40.7846 46.1768 41.0221 46.0687 41.1013 45.6856C41.1804 45.2927 40.9924 45.1847 40.5769 45.1847H39.8348L40.0129 44.3301Z" fill="#FEFEFE"/>
<path d="M45.1873 43.5442C44.93 44.0059 44.6035 44.5854 44.2869 45.1846H45.5138C45.4445 44.5952 45.3753 44.0059 45.3456 43.5442H45.1873ZM45.6127 46.0491H43.8515C43.6734 46.4125 43.5151 46.7465 43.3865 47.0117H42.3278C42.9314 45.7937 44 43.8978 44.7519 42.6797H46.2757C46.3944 44.0353 46.6418 45.8821 46.8693 47.0117H45.7809C45.7216 46.7563 45.6721 46.4223 45.6127 46.0491Z" fill="#FEFEFE"/>
<path d="M48.5323 46.0884H50.1451L50.8575 42.6797H51.8469L51.1246 46.0884H51.8766L51.3522 47.9646H50.4716L50.6695 47.0117H47.3549L48.2651 42.6797H49.2546L48.5323 46.0884Z" fill="#FEFEFE"/>
<path d="M56.2403 47.0117H55.2707L55.8643 44.1532C55.1618 45.1159 54.4099 46.0982 53.6678 47.0117H52.3716L53.2819 42.6797H54.2417L53.6183 45.6463C54.4099 44.6738 55.2113 43.6621 55.9435 42.6797H57.1506L56.2403 47.0117Z" fill="#FEFEFE"/>
<path d="M60.5926 43.5344H59.4844C59.2668 43.5344 59.0788 43.7112 58.9996 44.1041C58.9205 44.4872 59.0392 44.6444 59.2569 44.6444H60.3552L60.5926 43.5344ZM57.931 43.9469C58.0893 43.2298 58.495 42.6797 59.3756 42.6797H61.7601L60.8499 47.0117H59.8604L60.177 45.4597H59.5636C59.0986 45.4597 58.8512 45.6758 58.218 47.0117H57.0702C57.9112 45.4302 58.2378 45.2043 58.7523 45.1453C57.9508 45.106 57.8024 44.5658 57.931 43.9469Z" fill="#FEFEFE"/>
<path d="M64.7782 47.0117H63.7987L64.6991 42.6797H68.2808L67.3705 47.0117H66.391L67.1133 43.554H65.5005L64.7782 47.0117Z" fill="#FEFEFE"/>
<path d="M71.0616 44.831C71.3189 44.831 71.5267 44.6542 71.6256 44.2023C71.7147 43.7308 71.6058 43.5344 71.3387 43.5344H70.2701L70.0029 44.831H71.0616ZM68.5584 47.0117L69.4686 42.6797H71.8532C72.7338 42.6797 72.8921 43.3084 72.7041 44.2023C72.5359 44.9882 72.0313 45.6561 71.2298 45.6561H69.8347L69.5478 47.0117H68.5584Z" fill="#FEFEFE"/>
<path d="M76.2955 44.8114C76.5429 43.6326 76.4142 43.4951 75.5435 43.4951C74.6827 43.4951 74.4947 43.6326 74.2474 44.8114C74 46.0098 74.1188 46.1866 74.9796 46.1866C75.8503 46.1866 76.0383 46.0098 76.2955 44.8114ZM77.3443 44.8016C76.9782 46.5795 76.157 47.1002 74.7916 47.1002C73.4163 47.1002 72.8226 46.5795 73.1986 44.8016C73.5647 43.0432 74.3661 42.5717 75.7414 42.5717C77.1068 42.5717 77.7203 43.0432 77.3443 44.8016Z" fill="#FEFEFE"/>
<path d="M81.7372 47.0117H80.7676L81.3612 44.1532C80.6587 45.1159 79.9068 46.0982 79.1647 47.0117H77.8685L78.7788 42.6797H79.7386L79.1152 45.6463C79.9068 44.6738 80.7082 43.6621 81.4404 42.6797H82.6475L81.7372 47.0117Z" fill="#FEFEFE"/>
<path d="M84.1218 44.3301H84.8441C85.2597 44.3301 85.4377 44.2515 85.5169 43.9077C85.5862 43.5835 85.4279 43.4853 84.7155 43.4853C84.4186 43.4853 83.8645 43.5344 83.6073 43.6031V42.7289C84.013 42.6405 84.6462 42.5717 85.131 42.5717C86.4074 42.5717 86.7834 42.8762 86.6152 43.7014C86.4865 44.3006 86.259 44.664 85.4872 44.7328C86.2788 44.7623 86.3876 45.1748 86.2491 45.8428C86.0512 46.776 85.4377 47.1002 84.1911 47.1002C83.7458 47.1002 83.0829 47.0314 82.7069 46.943L83.073 46.0589C83.3006 46.1375 83.8546 46.1768 84.1515 46.1768C84.8935 46.1768 85.131 46.0687 85.2102 45.6856C85.2893 45.2927 85.1013 45.1847 84.6858 45.1847H83.9437L84.1218 44.3301Z" fill="#FEFEFE"/>
<path d="M88.6044 44.3497H89.7621C89.96 44.3497 90.0688 44.2416 90.138 43.9371C90.1974 43.6424 90.138 43.5344 89.9402 43.5344H88.7825L88.6044 44.3497ZM89.4257 46.1571C89.6334 46.1571 89.7621 46.0196 89.8313 45.6758C89.9105 45.3221 89.8313 45.165 89.6038 45.165H88.4362L88.2284 46.1571H89.4257ZM90.8702 45.8428C90.6921 46.7072 90.1974 47.0117 89.5048 47.0117H87.0609L87.9712 42.6797H90.3953C91.2462 42.6797 91.3748 43.0432 91.2363 43.721C91.1176 44.3202 90.89 44.664 90.1183 44.7328C90.9197 44.7622 91.0186 45.165 90.8702 45.8428Z" fill="#FEFEFE"/>
<path d="M95.0356 44.8114C95.283 43.6326 95.1544 43.4951 94.2837 43.4951C93.4229 43.4951 93.2349 43.6326 92.9875 44.8114C92.7402 46.0098 92.8589 46.1866 93.7197 46.1866C94.5904 46.1866 94.7883 46.0098 95.0356 44.8114ZM96.0845 44.8016C95.7184 46.5795 94.8971 47.1002 93.5317 47.1002C92.1663 47.1002 91.5627 46.5795 91.9387 44.8016C92.3048 43.0432 93.1062 42.5717 94.4816 42.5717C95.847 42.5717 96.4604 43.0432 96.0845 44.8016Z" fill="#FEFEFE"/>
<path d="M100.131 43.554H99.0624C98.815 44.3791 98.5182 45.2534 98.0927 46.0884H99.5966L100.131 43.554ZM100.576 46.0884H101.338L100.804 47.9646H99.9331L100.131 47.0117H97.1626L96.9648 47.9646H96.0842L96.3414 46.0884H97.0241C97.5683 45.0668 98.0235 43.9567 98.3401 42.6797H101.298L100.576 46.0884Z" fill="#FEFEFE"/>
<path d="M104.574 42.5717C104.97 42.5717 105.474 42.6307 105.781 42.7289L105.405 43.613C105.207 43.5344 104.861 43.4951 104.594 43.4951C103.733 43.4951 103.396 43.613 103.139 44.8114C102.892 46.0098 103.169 46.167 104.03 46.167C104.297 46.167 104.673 46.1179 104.891 46.0491V46.9528C104.544 47.0412 104.03 47.1002 103.634 47.1002C102.259 47.1002 101.724 46.5697 102.09 44.8016C102.457 43.0334 103.199 42.5717 104.574 42.5717Z" fill="#FEFEFE"/>
<path d="M106.543 47.0117L107.275 43.554H105.84L106.028 42.6797H109.867L109.689 43.554H108.264L107.542 47.0117H106.543Z" fill="#FEFEFE"/>
<path d="M111.194 44.3497H112.351C112.549 44.3497 112.658 44.2416 112.727 43.9371C112.787 43.6424 112.727 43.5344 112.529 43.5344H111.372L111.194 44.3497ZM112.015 46.1571C112.223 46.1571 112.351 46.0196 112.421 45.6758C112.5 45.3221 112.421 45.165 112.193 45.165H111.025L110.818 46.1571H112.015ZM113.459 45.8428C113.281 46.7072 112.787 47.0117 112.094 47.0117H109.65L110.56 42.6797H112.984C113.835 42.6797 113.964 43.0432 113.825 43.721C113.707 44.3202 113.479 44.664 112.707 44.7328C113.509 44.7622 113.608 45.165 113.459 45.8428Z" fill="#FEFEFE"/>
<path d="M116.507 43.5442C116.24 44.0059 115.923 44.5854 115.606 45.1846H116.823C116.754 44.5952 116.695 44.0059 116.665 43.5442H116.507ZM116.922 46.0491H115.171C114.983 46.4125 114.825 46.7465 114.696 47.0117H113.638C114.251 45.7937 115.31 43.8978 116.062 42.6797H117.585C117.704 44.0353 117.951 45.8821 118.179 47.0117H117.091C117.041 46.7563 116.982 46.4223 116.922 46.0491Z" fill="#FEFEFE"/>
</g>
<defs>
<linearGradient id="paint0_linear_6112_21546" x1="82.724" y1="16.4937" x2="105.172" y2="16.4937" gradientUnits="userSpaceOnUse">
<stop stop-color="#EC691F"/>
<stop offset="1" stop-color="#F6A72D"/>
</linearGradient>
<linearGradient id="paint1_linear_6112_21546" x1="79.2625" y1="33.4179" x2="101.51" y2="33.4179" gradientUnits="userSpaceOnUse">
<stop stop-color="#EC691F"/>
<stop offset="1" stop-color="#F6A72D"/>
</linearGradient>
<linearGradient id="paint2_linear_6112_21546" x1="80.9092" y1="25.101" x2="97.7411" y2="25.101" gradientUnits="userSpaceOnUse">
<stop stop-color="#EC691F"/>
<stop offset="1" stop-color="#F6A72D"/>
</linearGradient>
<clipPath id="clip0_6112_21546">
<rect width="123.875" height="56.3068" fill="white" transform="scale(1.00101)"/>
</clipPath>
</defs>
</svg>
