<svg width="174" height="57" viewBox="0 0 174 57" fill="none" xmlns="http://www.w3.org/2000/svg">
<g clip-path="url(#clip0_6112_21547)">
<path d="M23.1641 39.7684C21.5514 39.7711 19.9592 39.4064 18.5085 38.7021C17.0503 37.9936 15.7706 36.9656 14.7644 35.6946C13.7515 34.4155 13.0357 32.9274 12.6687 31.3378C12.3 29.7437 12.288 28.0879 12.6336 26.4887C12.9772 24.8935 13.6709 23.3945 14.6647 22.1002C15.6524 20.8144 16.917 19.7675 18.3647 19.0372C19.8048 18.3114 21.3915 17.9233 23.004 17.9023C24.6166 17.8813 26.2128 18.228 27.6713 18.9161C28.0959 19.1164 28.4254 19.4798 28.5873 19.9258C28.748 20.3717 28.7288 20.8653 28.5307 21.2965C28.4349 21.5093 28.298 21.7011 28.1277 21.8608C27.9575 22.0205 27.7574 22.1449 27.5389 22.227C27.3215 22.3081 27.0901 22.3448 26.8584 22.3351C26.6266 22.3254 26.3991 22.2694 26.1893 22.1704C25.0899 21.6541 23.8767 21.4273 22.6649 21.5117C21.4532 21.5961 20.2832 21.9888 19.266 22.6526C18.2407 23.3203 17.3997 24.235 16.8204 25.3126C16.2369 26.3963 15.9314 27.6078 15.9314 28.8385C15.9314 30.0693 16.2369 31.2808 16.8204 32.3645C17.3997 33.4421 18.2407 34.3568 19.266 35.0245C20.2831 35.6883 21.4532 36.0811 22.6649 36.1655C23.8767 36.2499 25.0899 36.0231 26.1893 35.5067C26.3991 35.4077 26.6266 35.3517 26.8584 35.3419C27.0901 35.3322 27.3215 35.369 27.5389 35.4501C27.9782 35.6142 28.3348 35.9481 28.5318 36.3805C28.7288 36.8107 28.748 37.3053 28.5873 37.7513C28.4278 38.1959 28.0984 38.559 27.6713 38.761C26.264 39.4307 24.7227 39.775 23.1641 39.7684ZM9.03324 39.6903C8.80024 39.6888 8.56983 39.6413 8.3553 39.5503C8.14077 39.4594 7.94636 39.3269 7.78331 39.1605C7.45078 38.8212 7.26391 38.3655 7.2625 37.8905V21.4131H2.60241C2.15325 21.3811 1.73345 21.1781 1.42946 20.846C1.12204 20.5111 0.951466 20.073 0.951466 19.6184C0.951466 19.1639 1.12204 18.7258 1.42946 18.3909C1.73516 18.057 2.15406 17.8543 2.60241 17.8226H10.7949V37.8916C10.7949 38.367 10.6093 38.8232 10.2798 39.1594C10.1176 39.3262 9.92387 39.4591 9.70988 39.5504C9.4959 39.6417 9.2659 39.6885 9.03324 39.6903ZM31.3566 30.6338H27.4698C27.0205 30.6015 26.6007 30.3981 26.2969 30.0655C25.9905 29.7304 25.8208 29.2926 25.8213 28.8385C25.8213 28.3824 25.9912 27.9443 26.2969 27.6104C26.6008 27.2783 27.0207 27.0757 27.4698 27.0444H31.3238C31.5668 27.0268 31.8109 27.0604 32.0402 27.1428C32.2696 27.2253 32.4791 27.3549 32.6552 27.5232C32.834 27.6924 32.9761 27.8964 33.0729 28.1226C33.1697 28.3488 33.219 28.5925 33.2179 28.8385C33.2175 29.0843 33.1675 29.3275 33.0708 29.5536C32.9741 29.7796 32.8328 29.9837 32.6552 30.1538C32.4786 30.3212 32.2692 30.4503 32.0403 30.5329C31.8113 30.6155 31.5678 30.6498 31.3249 30.6338H31.3589H31.3566ZM46.76 39.7072C44.6277 39.706 42.5449 39.064 40.7821 37.8645C39.0063 36.655 37.6277 34.9479 36.8194 32.9576C36.0048 30.9567 35.7919 28.7616 36.2069 26.6415C36.6182 24.5272 37.6418 22.5804 39.1506 21.043C40.6474 19.5179 42.5666 18.4755 44.661 18.0502C46.7484 17.6286 48.9144 17.8456 50.8767 18.6727C52.8501 19.5063 54.5309 20.9078 55.7055 22.699C56.89 24.5037 57.5205 26.6154 57.5192 28.774C57.5186 31.6632 56.3854 34.4371 54.3627 36.5005C53.3712 37.512 52.1885 38.3164 50.8833 38.8669C49.5782 39.4174 48.1766 39.7031 46.76 39.7072ZM46.76 21.4301C45.3275 21.431 43.9283 21.8624 42.7442 22.6684C41.5519 23.4806 40.6263 24.627 40.0835 25.9634C39.5359 27.3077 39.3927 28.7825 39.6714 30.207C39.9479 31.6271 40.6357 32.9347 41.6493 33.9673C42.6546 34.991 43.9432 35.6907 45.3493 35.9764C46.7516 36.2595 48.2067 36.1136 49.5248 35.5576C50.8504 34.9978 51.9795 34.0565 52.7686 32.8535C53.564 31.6416 53.9875 30.2235 53.9868 28.774C53.9868 26.8271 53.2248 24.9594 51.8696 23.5819C51.2034 22.9022 50.4085 22.3619 49.5312 21.9927C48.6539 21.6234 47.7119 21.4326 46.76 21.4312V21.4301ZM37.7705 46.9651C37.5376 46.9654 37.307 46.9188 37.0925 46.8282C36.878 46.7375 36.6838 46.6048 36.5217 46.4377C36.3567 46.2697 36.2265 46.0709 36.1385 45.8526C36.0505 45.6343 36.0064 45.4007 36.0088 45.1654V28.8091C36.009 28.3354 36.1942 27.8805 36.525 27.5413C36.6878 27.3762 36.8817 27.2449 37.0954 27.155C37.3092 27.0651 37.5386 27.0182 37.7705 27.0173C38.0026 27.0172 38.2324 27.0636 38.4463 27.1539C38.6602 27.2441 38.8539 27.3762 39.0159 27.5425C39.3487 27.8794 39.5347 28.3344 39.5333 28.808V45.1654C39.5348 45.6403 39.3503 46.097 39.0193 46.4377C38.8563 46.6037 38.662 46.7359 38.4477 46.8264C38.2333 46.9169 38.0032 46.9641 37.7705 46.9651ZM69.5589 39.7853C67.4266 39.7841 65.3438 39.1421 63.581 37.9426C61.8052 36.7332 60.4265 35.0261 59.6183 33.0357C58.8035 31.0344 58.5906 28.8389 59.0058 26.7184C59.4171 24.6042 60.4408 22.6574 61.9495 21.1199C63.4465 19.5953 65.3656 18.5534 67.4598 18.1283C69.5473 17.7068 71.7133 17.9237 73.6756 18.7508C75.6494 19.5841 77.3307 20.9857 78.5055 22.7771C79.6894 24.5816 80.3195 26.6929 80.3181 28.851C80.3197 30.2859 80.0424 31.7075 79.5018 33.0368C78.9637 34.3607 78.1713 35.5662 77.1695 36.5854C76.1739 37.5986 74.9871 38.4043 73.6778 38.9557C72.374 39.5042 70.9735 39.7863 69.5589 39.7853ZM69.5589 21.5161C68.1264 21.517 66.7272 21.9485 65.543 22.7544C64.35 23.5671 63.4239 24.7143 62.8813 26.0517C62.3341 27.3965 62.1917 28.8718 62.4714 30.2964C62.7487 31.7164 63.4373 33.0237 64.4516 34.0556C65.4575 35.0794 66.7469 35.7788 68.1539 36.0636C69.5567 36.3466 71.0093 36.1994 72.3294 35.6425C73.6552 35.0813 74.7839 34.1384 75.572 32.9338C76.3664 31.7205 76.7883 30.3012 76.7857 28.851C76.7858 27.8881 76.599 26.9343 76.2354 26.0427C75.8736 25.1545 75.3413 24.3458 74.6685 23.6622C73.9998 22.9824 73.2028 22.4418 72.3237 22.0719C71.4483 21.7045 70.5083 21.5148 69.5589 21.5161ZM78.5485 39.7853C78.3162 39.7852 78.0863 39.7387 77.8722 39.6485C77.6581 39.5583 77.4643 39.4263 77.3019 39.2601C76.9706 38.9222 76.7852 38.4678 76.7857 37.9946V28.937C76.7692 28.6916 76.8024 28.4454 76.8833 28.2132C76.9642 27.981 77.0912 27.7675 77.2567 27.5855C77.4217 27.4063 77.6218 27.2631 77.8447 27.1647C78.0675 27.0664 78.3083 27.015 78.5519 27.0139C78.7956 27.0136 79.0366 27.0643 79.2594 27.1627C79.4823 27.2612 79.6821 27.4052 79.846 27.5855C80.0127 27.7666 80.1407 27.98 80.2219 28.2124C80.303 28.4449 80.3358 28.6914 80.3181 28.937V37.9856C80.3178 38.4604 80.1317 38.9162 79.7996 39.2556C79.6357 39.4209 79.4406 39.552 79.2257 39.6414C79.0107 39.7308 78.7802 39.7766 78.5474 39.7763V39.7853H78.5485ZM92.3578 39.7853C90.2254 39.7841 88.1427 39.1421 86.3798 37.9426C84.6041 36.7332 83.2254 35.0261 82.4172 33.0357C81.6023 31.0344 81.3895 28.8389 81.8047 26.7184C82.216 24.6042 83.2396 22.6574 84.7484 21.1199C86.2454 19.5953 88.1645 18.5534 90.2587 18.1283C92.3461 17.7067 94.5122 17.9236 96.4744 18.7508C98.4483 19.5841 100.13 20.9857 101.304 22.7771C102.488 24.5816 103.118 26.6929 103.117 28.851C103.121 31.7413 101.989 34.5175 99.9661 36.582C98.9743 37.5943 97.7906 38.399 96.4843 38.949C95.178 39.499 93.7752 39.7833 92.3578 39.7853ZM92.3578 21.5161C90.9253 21.517 89.5261 21.9485 88.3419 22.7544C87.1489 23.5671 86.2228 24.7143 85.6801 26.0517C85.133 27.3965 84.9906 28.8718 85.2703 30.2964C85.5476 31.7164 86.2362 33.0236 87.2505 34.0556C88.2564 35.0794 89.5458 35.7788 90.9528 36.0636C92.3555 36.3466 93.8081 36.1994 95.1294 35.6425C96.4548 35.0811 97.5831 34.1382 98.3709 32.9338C99.1652 31.7204 99.5871 30.3012 99.5846 28.851C99.5847 27.8881 99.3978 26.9343 99.0343 26.0427C98.6725 25.1545 98.1402 24.3458 97.4674 23.6622C96.7986 22.9824 96.0016 22.4419 95.1226 22.0719C94.2472 21.7045 93.3072 21.5148 92.3578 21.5161ZM83.3852 46.9482C82.9153 46.9482 82.4647 46.758 82.133 46.4207C81.8 46.0809 81.6138 45.6241 81.6145 45.1484V28.7921C81.6444 28.3389 81.8437 27.9135 82.1726 27.6002C82.4983 27.2899 82.9308 27.1164 83.3807 27.1157C83.829 27.1157 84.2615 27.2889 84.5887 27.6002C84.9171 27.9103 85.1163 28.3359 85.1469 28.791V45.1484C85.1488 45.6232 84.9647 46.0799 84.634 46.4207C84.471 46.5867 84.2767 46.7187 84.0624 46.8092C83.848 46.8998 83.6179 46.947 83.3852 46.9482ZM138.056 39.7684C136.444 39.771 134.851 39.4064 133.401 38.7021C131.943 37.9935 130.663 36.9655 129.657 35.6946C128.644 34.4156 127.928 32.9274 127.561 31.3378C127.192 29.7438 127.18 28.0878 127.526 26.4887C127.869 24.8932 128.563 23.3942 129.558 22.1002C130.546 20.8146 131.81 19.7677 133.257 19.0372C134.697 18.3112 136.284 17.923 137.896 17.902C139.509 17.881 141.105 18.2279 142.564 18.9161C142.776 19.0127 142.968 19.1504 143.127 19.3214C143.286 19.4923 143.41 19.6931 143.491 19.9122C143.616 20.2431 143.641 20.6034 143.564 20.9486C143.486 21.2938 143.309 21.6087 143.055 21.8546C142.888 22.0154 142.69 22.1415 142.474 22.2254C142.258 22.3093 142.027 22.3495 141.795 22.3435C141.563 22.3371 141.335 22.2844 141.123 22.1885H141.082C140.137 21.7389 139.103 21.509 138.056 21.5161C136.973 21.5145 135.904 21.7596 134.93 22.2326C133.951 22.7084 133.092 23.3986 132.417 24.252C131.737 25.1109 131.256 26.1104 131.01 27.178C130.762 28.2481 130.754 29.3596 130.985 30.4334C131.215 31.5051 131.681 32.5123 132.349 33.3821C133.012 34.2455 133.86 34.9488 134.832 35.4399C135.799 35.9274 136.864 36.1885 137.947 36.2032C139.03 36.2179 140.102 35.9859 141.082 35.5248C141.29 35.4232 141.517 35.3643 141.749 35.3517C141.981 35.339 142.213 35.3729 142.431 35.4512C142.873 35.6097 143.234 35.9391 143.436 36.3681C143.639 36.7982 143.665 37.2906 143.509 37.74C143.355 38.1867 143.031 38.5544 142.607 38.7621H142.564C141.155 39.4298 139.615 39.7728 138.056 39.7684ZM115.182 39.7684C113.765 39.7642 112.363 39.4784 111.058 38.9277C109.752 38.377 108.569 37.5723 107.578 36.5605C105.555 34.4969 104.423 31.723 104.422 28.834C104.453 28.3812 104.652 27.9562 104.981 27.6432C105.306 27.3329 105.739 27.1594 106.189 27.1587C106.637 27.1587 107.068 27.3319 107.397 27.6432C107.725 27.9545 107.924 28.379 107.955 28.834C107.955 30.7809 108.716 32.6497 110.072 34.0273C110.738 34.707 111.533 35.2472 112.41 35.6165C113.288 35.9857 114.23 36.1766 115.182 36.1779C116.134 36.1765 117.076 35.9857 117.953 35.6164C118.831 35.2472 119.626 34.7069 120.292 34.0273C121.651 32.6404 122.411 30.7755 122.408 28.834C122.439 28.3812 122.638 27.9562 122.967 27.6432C123.292 27.3333 123.725 27.1605 124.175 27.1605C124.624 27.1605 125.057 27.3333 125.383 27.6432C125.711 27.9545 125.91 28.379 125.942 28.834C125.941 31.7231 124.808 34.4969 122.785 36.5605C121.794 37.5722 120.611 38.3768 119.306 38.9275C118 39.4782 116.598 39.764 115.182 39.7684ZM106.192 30.5477C105.724 30.5477 105.275 30.3587 104.943 30.0236C104.611 29.6854 104.424 29.2303 104.422 28.7559V19.7005C104.452 19.2473 104.652 18.8219 104.981 18.5086C105.307 18.1992 105.739 18.0267 106.189 18.0267C106.638 18.0267 107.071 18.1992 107.397 18.5086C107.725 18.8199 107.924 19.2443 107.955 19.6994V28.757C107.955 29.2324 107.769 29.6875 107.439 30.0225C107.276 30.1883 107.083 30.3202 106.869 30.4103C106.655 30.5005 106.425 30.5472 106.193 30.5477H106.192ZM124.171 36.505C123.704 36.505 123.255 36.316 122.925 35.981C122.593 35.6425 122.407 35.1872 122.408 34.7132V19.4594C122.391 19.2139 122.425 18.9675 122.506 18.7352C122.587 18.5029 122.714 18.2895 122.88 18.1079C123.045 17.9283 123.245 17.7847 123.468 17.6861C123.69 17.5875 123.931 17.5361 124.175 17.5351C124.418 17.5348 124.66 17.5855 124.883 17.684C125.106 17.7824 125.306 17.9264 125.47 18.1068C125.635 18.289 125.762 18.5025 125.843 18.7347C125.924 18.9668 125.958 19.2129 125.942 19.4583V34.7143C125.94 35.1897 125.752 35.6459 125.42 35.9821C125.088 36.3171 124.639 36.505 124.171 36.505ZM115.182 45.6397C114.733 45.6071 114.313 45.4037 114.01 45.0714C113.703 44.7363 113.534 44.2985 113.534 43.8444C113.534 43.3883 113.704 42.9502 114.01 42.6163C114.315 42.2835 114.734 42.0809 115.182 42.0492C116.133 42.0467 117.074 41.8553 117.95 41.4861C118.826 41.1169 119.621 40.5772 120.287 39.8985C121.645 38.5143 122.406 36.6521 122.408 34.7132C122.391 34.4677 122.425 34.2225 122.506 33.9902C122.587 33.7578 122.714 33.5444 122.88 33.3628C123.045 33.1832 123.245 33.0396 123.468 32.941C123.69 32.8424 123.931 32.791 124.175 32.7901C124.418 32.79 124.66 32.841 124.883 32.9396C125.106 33.0383 125.306 33.1824 125.47 33.3628C125.635 33.5451 125.762 33.7586 125.843 33.9907C125.924 34.2229 125.958 34.4689 125.942 34.7143C125.943 37.6033 124.81 40.3773 122.787 42.4397C121.795 43.451 120.612 44.2548 119.306 44.8042C118 45.3536 116.598 45.6376 115.182 45.6397Z" fill="url(#paint0_linear_6112_21547)"/>
<path d="M156.808 29.5055C156.808 29.5055 157.934 27.9128 158.899 26.2931C159.805 24.8519 160.597 23.3418 161.267 21.7767C161.528 21.1517 161.643 20.4754 161.603 19.7992L160.628 19.8705C154.751 20.4523 148.764 21.7314 143.332 26.4357C141.18 28.1883 139.358 30.3093 137.949 32.6997C139.281 31.3932 140.682 30.1598 142.147 29.0052C145.614 26.4425 149.688 24.9732 153.903 24.765C153.008 26.0464 152.197 27.3849 151.477 28.772C150.581 30.2763 149.894 31.8954 149.435 33.5849L156.808 29.5055ZM154.188 24.8442C154.188 24.8442 153.063 26.4368 152.097 28.0645C151.193 29.4916 150.402 30.9869 149.73 32.5368C149.471 33.1625 149.356 33.8382 149.393 34.5142C149.393 34.5142 149.755 34.5142 150.368 34.4339C156.245 33.852 162.232 32.573 167.665 27.8687C171.644 24.4243 173.047 21.6058 173.047 21.6058C171.713 22.9098 170.312 24.1431 168.849 25.3004C165.383 27.8642 161.309 29.3311 157.093 29.5315C157.989 28.2532 158.799 26.9177 159.52 25.5335C160.415 24.0249 161.104 22.4032 161.569 20.7116L154.188 24.8442Z" fill="url(#paint1_linear_6112_21547)"/>
<path d="M156.063 14.0283C156.078 14.7008 155.944 15.3683 155.669 15.9824C155.395 16.5965 154.987 17.1419 154.476 17.5788C153.964 18.0158 153.362 18.3334 152.712 18.5087C152.062 18.684 151.382 18.7125 150.72 18.5922C149.878 18.4381 149.097 18.0485 148.467 17.4686C147.837 16.8887 147.385 16.1422 147.162 15.3157C146.94 14.4892 146.956 13.6165 147.209 12.7989C147.463 11.9813 147.943 11.2522 148.594 10.6962C149.244 10.1402 150.04 9.78005 150.887 9.65749C151.734 9.53494 152.599 9.65501 153.381 10.0038C154.163 10.3526 154.83 10.9158 155.304 11.6281C155.779 12.3404 156.042 13.1726 156.063 14.0283ZM147.779 14.0283C147.778 14.7711 147.998 15.4973 148.41 16.1149C148.823 16.7326 149.41 17.2138 150.096 17.4977C150.609 17.7098 151.163 17.8056 151.717 17.7782C152.272 17.7508 152.813 17.601 153.303 17.3394C153.793 17.0777 154.218 16.7109 154.549 16.2652C154.88 15.8196 155.108 15.3061 155.217 14.7618C155.321 14.247 155.316 13.716 155.203 13.2032C155.089 12.6903 154.869 12.2071 154.556 11.7846C154.244 11.3621 153.847 11.0098 153.39 10.7505C152.933 10.4911 152.427 10.3305 151.904 10.2789C151.381 10.2274 150.853 10.2861 150.354 10.4512C149.856 10.6163 149.397 10.8842 149.008 11.2375C148.619 11.5909 148.309 12.0218 148.097 12.5025C147.885 12.9832 147.777 13.503 147.779 14.0283ZM151.423 11.5336C152.44 11.5336 153.632 11.6875 153.632 12.9903C153.654 13.2599 153.576 13.5283 153.414 13.7443C153.251 13.9603 153.014 14.1089 152.749 14.1619C153.367 14.4041 153.544 14.7799 153.566 15.8179C153.543 16.0545 153.589 16.2922 153.699 16.5027H152.572C152.525 16.2769 152.525 16.0437 152.572 15.8179C152.572 14.8241 152.373 14.6248 151.423 14.6248H150.871V16.5027H149.767V11.5336H151.423ZM151.423 13.7408C152.219 13.7408 152.55 13.5427 152.55 13.0571C152.55 12.5704 152.219 12.395 151.423 12.395H150.805V13.7419L151.423 13.7408Z" fill="#0D6EC9"/>
</g>
<defs>
<linearGradient id="paint0_linear_6112_21547" x1="72.2818" y1="17.5351" x2="72.2818" y2="46.9651" gradientUnits="userSpaceOnUse">
<stop stop-color="#0D6EC9"/>
<stop offset="0.868" stop-color="#0653AA"/>
</linearGradient>
<linearGradient id="paint1_linear_6112_21547" x1="137.949" y1="32.3228" x2="173.51" y2="23.183" gradientUnits="userSpaceOnUse">
<stop stop-color="#F05310"/>
<stop offset="1" stop-color="#FFB906"/>
</linearGradient>
<clipPath id="clip0_6112_21547">
<rect width="171.245" height="37.1781" fill="white" transform="translate(0.953919 9.61182) scale(1.00495)"/>
</clipPath>
</defs>
</svg>
