<svg width="157" height="57" viewBox="0 0 157 57" fill="none" xmlns="http://www.w3.org/2000/svg">
<g clip-path="url(#clip0_6112_21545)">
<path d="M70.4386 20.546L70.4462 33.3132L76.1822 20.4535H79.4813V35.6628L77.2627 35.6958V25.7595L77.2618 23.3599L71.6089 35.6675L68.013 35.6628V20.5451L70.4386 20.546Z" fill="#0D0F0F"/>
<path d="M97.0999 20.546L97.1094 33.3132L102.843 20.4535H106.143V35.6628L103.925 35.6958V25.7595L103.923 23.3599L98.2712 35.6675L94.6734 35.6628V20.5451L97.0999 20.546Z" fill="#0D0F0F"/>
<path d="M36.5858 5.13976L23.3762 50.4126H25.729L38.9386 5.13976H36.5858Z" fill="#181717"/>
<path d="M43.5345 5.13976L30.3249 50.4126H32.6815L45.8892 5.13976H43.5345Z" fill="#181717"/>
<path d="M29.6323 5.13976L16.4246 50.4126H18.7783L31.9889 5.13976H29.6323Z" fill="#181717"/>
<path d="M0.513681 5.13976H25.0376L11.8299 50.4126H0.513681V5.13976Z" fill="#F6CE45"/>
<path d="M46.1215 50.4126V20.064L37.2205 50.4126H46.1215Z" fill="#F6CE45"/>
<path d="M91.0582 20.4535V22.3766L83.7955 22.3795V26.3238L88.2639 26.3096C89.6289 26.3096 90.6385 26.671 91.2927 27.3882C91.944 28.1072 92.2729 29.2905 92.2729 30.9418C92.2729 32.5913 91.9308 33.785 91.2473 34.5248C90.6111 35.223 89.6186 35.5712 88.2639 35.5712H81.5693V20.4535H91.0582ZM83.7965 28.4809L83.7492 33.6812H87.6051C88.1146 33.6812 89.3151 33.7784 89.8435 32.8432C89.9815 32.5998 90.2207 31.6184 90.2207 31.0579C90.2207 29.8359 89.9144 29.0433 89.5703 28.7847C89.0703 28.4082 88.0701 28.4799 87.5502 28.4799L83.7965 28.4809Z" fill="#0D0F0F"/>
<path d="M110.763 20.4535V26.3313H116.945V20.4535H119.124V35.5712H116.945V28.5054H110.763V35.5967L108.515 35.5722V20.4535H110.763Z" fill="#0D0F0F"/>
<path d="M127.394 22.5861V35.5703H125.247V22.6116H120.925V20.4526H131.689V22.5861H127.394Z" fill="#0D0F0F"/>
<path d="M146.645 20.4535V26.3313H148.218L152.082 20.4535H155.259L149.889 27.2419L155.597 35.5712H152.358L148.287 28.7895H146.644V35.5712H144.508V20.4535H146.645Z" fill="#0D0F0F"/>
<path d="M136.42 28.5101H135.418C135.431 29.3141 135.435 31.6854 135.521 32.1308C135.611 32.5828 135.939 33.7151 136.961 33.7151H138.649H142.711V35.5703H139.808H136.149C135.043 35.5703 134.274 35.2117 133.845 34.4861C133.417 33.7661 133.203 32.6753 133.203 31.2174V24.8055C133.203 23.3457 133.417 22.2615 133.845 21.5349C134.273 20.8149 135.043 20.4535 136.149 20.4535H139.808H142.711V22.3785H138.649H136.734C136.122 22.3785 135.607 23.1259 135.509 23.5779C135.416 24.0402 135.43 25.6066 135.417 26.3398H136.419H141.714V28.5111L136.42 28.5101Z" fill="#0D0F0F"/>
<path d="M63.4496 32.8574C63.1018 33.3839 62.9052 33.7085 61.957 33.7085H59.4586C58.5133 33.7085 57.8629 33.4566 57.4962 32.9461C57.1294 32.4403 56.9498 31.3882 56.9498 30.3634V25.8529C56.9498 24.83 57.1294 23.7798 57.4962 23.2712C57.8629 22.7654 58.5142 22.5106 59.4586 22.5106H61.957C62.9052 22.5106 63.1736 22.8437 63.5224 23.3684C63.7427 23.7024 63.8486 24.3167 63.875 24.848H65.9263C65.9263 23.4307 65.6806 22.3483 65.1729 21.5859C64.671 20.8272 64.0206 20.4535 62.6556 20.4535H58.1626C56.8032 20.4535 55.8636 20.8225 55.3361 21.5491C54.8049 22.2832 54.5459 23.3816 54.5459 24.8621V31.3589C54.5459 32.8347 54.8049 33.9388 55.3361 34.672C55.8636 35.4061 56.8032 35.7666 58.1626 35.7666H62.6556C64.0206 35.7666 64.671 35.3901 65.1729 34.6314C65.6806 33.8737 65.9263 32.7961 65.9263 31.3702H63.8637C63.8627 31.8685 63.6718 32.5262 63.4496 32.8574Z" fill="#0D0F0F"/>
<path d="M54.5076 46.9157C54.5076 45.6315 54.6456 44.7916 54.9207 44.3972C55.1958 44.0009 55.7582 43.8027 56.609 43.8027C57.456 43.8027 58.0128 43.999 58.2812 44.3925C58.5497 44.785 58.6839 45.6258 58.6839 46.9157C58.6839 48.1943 58.5497 49.0313 58.2784 49.4267C58.0071 49.8221 57.4475 50.0202 56.5958 50.0202C55.7507 50.0202 55.1939 49.8277 54.9273 49.4446C54.6485 49.0426 54.5076 48.2009 54.5076 46.9157ZM55.0597 46.9157C55.0597 47.9999 55.1485 48.6888 55.3253 48.9851C55.503 49.2795 55.9284 49.4267 56.6014 49.4267C57.2717 49.4267 57.6933 49.2795 57.8681 48.9851C58.0449 48.6888 58.1309 47.9999 58.1309 46.9157C58.1309 45.8202 58.0449 45.1266 57.8748 44.835C57.7046 44.5416 57.2811 44.3972 56.6014 44.3972C55.9246 44.3972 55.4983 44.5425 55.3215 44.8388C55.1466 45.1342 55.0597 45.8287 55.0597 46.9157Z" fill="#0D0F0F"/>
<path d="M59.9722 43.8601H63.2618V44.4537H60.5242V46.5589H62.1851C62.7343 46.5589 63.1181 46.6759 63.3336 46.9156C63.5511 47.1543 63.6598 47.5865 63.6598 48.2168C63.6598 48.8387 63.5492 49.285 63.3251 49.5539C63.1011 49.821 62.7249 49.9559 62.1983 49.9559H59.9722V43.8601ZM60.5242 47.1505V49.3624H62.1586C62.5415 49.3624 62.7967 49.2718 62.93 49.0944C63.0491 48.9368 63.1096 48.6443 63.1096 48.2168C63.1096 47.7667 63.0406 47.4761 62.9064 47.3459C62.7702 47.2166 62.4971 47.1505 62.0849 47.1505H60.5242Z" fill="#0D0F0F"/>
<path d="M65.5094 46.5599H68.0419V47.1515H65.5094V49.3633H68.1477V49.9569H64.9574V43.8611H68.1619V44.4546H65.5104L65.5094 46.5599Z" fill="#0D0F0F"/>
<path d="M72.6751 47.9244H73.213C73.213 48.7265 73.0778 49.2767 72.8075 49.5729C72.5371 49.8721 72.0153 50.0212 71.2383 50.0212C70.4622 50.0212 69.9442 49.8315 69.6833 49.4522C69.394 49.036 69.2503 48.1953 69.2503 46.9327C69.2503 45.6768 69.393 44.8341 69.6757 44.4038C69.9423 44.0037 70.4622 43.8027 71.2383 43.8027C71.9955 43.8027 72.5125 43.9631 72.7886 44.283C73.0268 44.5642 73.1459 45.0681 73.1459 45.7947H72.609C72.5598 45.2248 72.4643 44.8596 72.3216 44.6973C72.1495 44.4963 71.7875 44.3981 71.2383 44.3981C70.6626 44.3981 70.2788 44.5595 70.0888 44.8851C69.8988 45.2097 69.8043 45.8928 69.8043 46.9327C69.8043 47.9669 69.8969 48.6435 70.086 48.9558C70.2741 49.2719 70.6579 49.4276 71.2392 49.4276C71.8196 49.4276 72.2044 49.3286 72.3925 49.1276C72.5815 48.9275 72.6751 48.5265 72.6751 47.9244Z" fill="#0D0F0F"/>
<path d="M74.3101 43.8601H78.3238V49.9559H77.7717V44.4537H74.8593V49.9559H74.3091L74.3101 43.8601Z" fill="#0D0F0F"/>
<path d="M80.2727 46.5599H82.8052V47.1515H80.2727V49.3633H82.9101V49.9569H79.7207V43.8611H82.9243V44.4546H80.2727V46.5599Z" fill="#0D0F0F"/>
<path d="M84.0798 43.8601H84.6338V45.4095C84.6338 45.9474 84.734 46.2947 84.9381 46.4513C85.0922 46.5711 85.4174 46.6315 85.909 46.6315C86.3069 46.6315 86.5934 46.6221 86.7654 46.6079C86.9393 46.59 87.1085 46.5608 87.2768 46.5174V43.8601H87.8289V49.9559H87.2768V47.0949C87.1 47.1449 86.8741 47.1788 86.599 47.1958C86.3249 47.2156 86.0489 47.2251 85.7757 47.2251C85.1007 47.2251 84.6508 47.0958 84.4229 46.8372C84.1932 46.5796 84.0789 46.0635 84.0789 45.285L84.0798 43.8601Z" fill="#0D0F0F"/>
<path d="M89.7775 43.8601V49.4926L92.6087 43.8601H93.4935V49.9559H92.9424V44.381L90.1037 49.9559H89.2255V43.8601H89.7775Z" fill="#0D0F0F"/>
<path d="M94.8878 49.9559V43.8601H97.2898C97.7227 43.8601 98.0422 43.9762 98.2436 44.2045C98.4449 44.4367 98.5451 44.8207 98.5451 45.3595C98.5451 45.7615 98.5139 46.0493 98.4525 46.2239C98.3636 46.4692 98.1887 46.6485 97.9269 46.7618C98.236 46.8627 98.4449 47.0297 98.5517 47.2562C98.6434 47.4515 98.6897 47.7629 98.6897 48.1904C98.6897 48.7717 98.599 49.201 98.4166 49.4831C98.2133 49.7983 97.8844 49.955 97.4278 49.955L94.8878 49.9559ZM95.4408 44.4537V46.5589H97.0241C97.3909 46.5589 97.6442 46.4768 97.7851 46.3183C97.9241 46.1569 97.9959 45.8597 97.9959 45.4237C97.9959 45.05 97.9411 44.7915 97.8352 44.6565C97.7284 44.5207 97.528 44.4537 97.2302 44.4537H95.4408ZM95.4408 47.1505V49.3624H96.9769C97.4334 49.3624 97.7331 49.3029 97.874 49.1831C98.0517 49.0387 98.1396 48.7245 98.1396 48.2423C98.1396 47.7639 98.0762 47.4591 97.9458 47.3223C97.8428 47.2081 97.596 47.1505 97.2094 47.1505H95.4408Z" fill="#0D0F0F"/>
<path d="M99.6556 49.9559L101.47 43.8601H102.275L104.131 49.9559H103.538L103.166 48.6962H100.652L100.255 49.9559H99.6556ZM102.985 48.1017L101.882 44.3631L100.786 48.1017H102.985Z" fill="#0D0F0F"/>
<path d="M108.33 47.5176H106.796L105.678 49.9559H105.006L106.184 47.4355C105.85 47.3657 105.59 47.1836 105.4 46.8911C105.191 46.575 105.086 46.1598 105.086 45.6455C105.086 45.0255 105.219 44.5726 105.483 44.2886C105.746 44.0036 106.143 43.8611 106.675 43.8611H108.882V49.9569H108.33V47.5176ZM108.33 46.925V44.4537H106.562C106.222 44.4537 105.981 44.5613 105.845 44.7764C105.707 44.9916 105.638 45.3228 105.638 45.7748C105.638 46.541 106.035 46.926 106.828 46.926L108.33 46.925Z" fill="#0D0F0F"/>
<path d="M112.709 43.8601H116.219V49.9559H115.668V44.4537H113.262V48.1734C113.262 48.7858 113.195 49.2284 113.062 49.4992C112.916 49.803 112.67 49.955 112.325 49.955H111.973V49.3614H112.106C112.331 49.3614 112.484 49.2963 112.563 49.167C112.661 49.0085 112.709 48.7028 112.709 48.2451V43.8601Z" fill="#0D0F0F"/>
<path d="M118.166 43.8601V49.4926L120.999 43.8601H121.884V49.9559H121.331V44.381L118.493 49.9559H117.615V43.8601H118.166Z" fill="#0D0F0F"/>
<path d="M123.332 49.3624C123.514 49.0208 123.643 48.6622 123.721 48.2838C123.797 47.9064 123.838 47.4789 123.838 47.0024V43.8601H127.22V49.3624H127.579V51.3534H127.076V49.9559H123.532V51.3534H123.028V49.3624H123.332ZM126.669 44.4537H124.389V46.9184C124.389 47.5223 124.358 47.996 124.294 48.3395C124.228 48.6848 124.116 49.0264 123.958 49.3624H126.669V44.4537Z" fill="#0D0F0F"/>
<path d="M129.234 46.5599H131.768V47.1515H129.234V49.3633H131.874V49.9569H128.684V43.8611H131.886V44.4546H129.234V46.5599Z" fill="#0D0F0F"/>
<path d="M133.663 47.5761V49.9559H133.111V43.8601H135.483C135.963 43.8601 136.3 43.9951 136.502 44.2678C136.7 44.5386 136.8 44.9802 136.8 45.5954C136.8 46.3447 136.684 46.8618 136.451 47.1486C136.217 47.4327 135.782 47.5761 135.144 47.5761H133.663ZM133.663 44.4537V46.9807H134.984C135.455 46.9807 135.775 46.9014 135.949 46.7457C136.148 46.5608 136.246 46.2069 136.246 45.6841C136.246 45.2284 136.196 44.916 136.093 44.7481C135.973 44.5518 135.743 44.4537 135.403 44.4537H133.663Z" fill="#0D0F0F"/>
<path d="M141.294 47.9244H141.831C141.831 48.7265 141.696 49.2767 141.426 49.5729C141.156 49.8721 140.632 50.0212 139.857 50.0212C139.082 50.0212 138.563 49.8315 138.303 49.4522C138.012 49.036 137.87 48.1953 137.87 46.9327C137.87 45.6768 138.011 44.8341 138.295 44.4038C138.56 44.0037 139.082 43.8027 139.856 43.8027C140.615 43.8027 141.131 43.9631 141.406 44.283C141.646 44.5642 141.765 45.0681 141.765 45.7947H141.227C141.177 45.2248 141.083 44.8596 140.94 44.6973C140.768 44.4963 140.408 44.3981 139.857 44.3981C139.282 44.3981 138.896 44.5595 138.707 44.8851C138.516 45.2106 138.421 45.8928 138.421 46.9336C138.421 47.9679 138.515 48.6444 138.704 48.9568C138.892 49.2729 139.276 49.4286 139.857 49.4286C140.439 49.4286 140.822 49.3295 141.011 49.1285C141.198 48.9275 141.294 48.5265 141.294 47.9244Z" fill="#0D0F0F"/>
<path d="M144.724 44.4537V49.9559H144.17V44.4537H142.562V43.8601H146.332V44.4537H144.724Z" fill="#0D0F0F"/>
<path d="M147.388 49.9559V43.8601H149.787C150.222 43.8601 150.539 43.9762 150.742 44.2045C150.944 44.4367 151.044 44.8207 151.044 45.3595C151.044 45.7615 151.013 46.0493 150.949 46.2239C150.86 46.4692 150.687 46.6485 150.425 46.7618C150.734 46.8627 150.944 47.0297 151.05 47.2562C151.143 47.4515 151.189 47.7629 151.189 48.1904C151.189 48.7717 151.097 49.201 150.917 49.4831C150.713 49.7983 150.382 49.955 149.924 49.955L147.388 49.9559ZM147.939 44.4537V46.5589H149.522C149.889 46.5589 150.144 46.4768 150.285 46.3183C150.423 46.1569 150.493 45.8597 150.493 45.4237C150.493 45.05 150.441 44.7915 150.332 44.6565C150.227 44.5207 150.028 44.4537 149.729 44.4537H147.939ZM147.939 47.1505V49.3624H149.475C149.931 49.3624 150.231 49.3029 150.372 49.1831C150.549 49.0387 150.638 48.7245 150.638 48.2423C150.638 47.7639 150.574 47.4591 150.445 47.3223C150.339 47.2081 150.093 47.1505 149.708 47.1505H147.939Z" fill="#0D0F0F"/>
<path d="M152.314 46.9157C152.314 45.6315 152.451 44.7916 152.725 44.3972C152.999 44.0009 153.563 43.8027 154.413 43.8027C155.26 43.8027 155.817 43.999 156.085 44.3925C156.355 44.785 156.488 45.6258 156.488 46.9157C156.488 48.1943 156.353 49.0313 156.082 49.4267C155.814 49.8221 155.252 50.0202 154.401 50.0202C153.554 50.0202 152.999 49.8277 152.733 49.4446C152.452 49.0426 152.314 48.2009 152.314 46.9157ZM152.864 46.9157C152.864 47.9999 152.954 48.6888 153.131 48.9851C153.309 49.2795 153.733 49.4267 154.406 49.4267C155.076 49.4267 155.498 49.2795 155.673 48.9851C155.848 48.6888 155.935 47.9999 155.935 46.9157C155.935 45.8202 155.851 45.1266 155.679 44.835C155.51 44.5416 155.085 44.3972 154.406 44.3972C153.728 44.3972 153.301 44.5425 153.127 44.8388C152.953 45.1342 152.864 45.8287 152.864 46.9157Z" fill="#0D0F0F"/>
</g>
<defs>
<clipPath id="clip0_6112_21545">
<rect width="155.23" height="46.0761" fill="white" transform="translate(0.5127 5.13976) scale(1.00479)"/>
</clipPath>
</defs>
</svg>
