<svg width="132" height="40" viewBox="0 0 132 40" fill="none" xmlns="http://www.w3.org/2000/svg">
<g clip-path="url(#clip0_6112_21542)">
<g clip-path="url(#clip1_6112_21542)">
<path fill-rule="evenodd" clip-rule="evenodd" d="M33.7456 13.9706L25.3604 29.5888V29.7929H40.359V25.9067H31.9166L40.2774 10.4355V10.1987H26.0789V13.9706H33.7456ZM54.8515 21.5797V17.7752H48.14V13.9706H55.423V10.1987H43.7474V29.7929H55.6843V25.7924H48.14V21.5797H54.8515ZM76.1451 29.7929V10.1987H71.7607V20.7796L60.7709 10.1987H59.6442V29.7929H64.0286V18.6242L75.1409 29.7929H76.1451ZM87.3064 25.8496H84.5222V14.1502H87.3064C90.6784 14.1502 92.442 17.0812 92.442 19.9713C92.4501 22.7962 90.8335 25.8496 87.3064 25.8496ZM87.3635 10.2314H80.1377V29.7929H87.3717C89.9109 29.8746 92.3685 28.903 94.1647 27.1069C95.961 25.1556 96.9163 22.5757 96.8346 19.9223C96.8346 15.0973 93.5851 10.2314 87.3635 10.2314ZM110.69 21.5797V17.7752H103.971V13.9706H111.262V10.1987H99.5862V29.7929H111.523V25.7924H103.979V21.5797H110.69ZM131.812 29.7929V10.1987H127.428V20.7796L116.438 10.1987H115.32V29.7929H119.704V18.6242L130.816 29.7929H131.812Z" fill="black"/>
<path fill-rule="evenodd" clip-rule="evenodd" d="M6.31986 10.1987H0.196289V16.3219C0.199217 17.2517 0.553339 18.146 1.18773 18.8258C1.82211 19.5056 2.68992 19.9206 3.61732 19.9877C7.1445 19.9958 10.0022 22.8533 10.0022 26.3721C10.0688 27.2982 10.4826 28.165 11.1607 28.7992C11.8389 29.4334 12.7314 29.7883 13.66 29.7929H19.7917V23.6697C19.7873 22.7404 19.4326 21.8469 18.7985 21.1675C18.1644 20.488 17.2975 20.0726 16.3707 20.004C12.8435 19.9958 9.98583 17.1465 9.98583 13.6196C9.91612 12.6932 9.5003 11.827 8.82106 11.1931C8.14181 10.5593 7.2489 10.2043 6.31986 10.1987Z" fill="url(#paint0_linear_6112_21542)"/>
<path fill-rule="evenodd" clip-rule="evenodd" d="M19.7917 16.3219V10.1987H13.6681C12.6475 10.1987 11.6841 10.6233 10.9901 11.3662C10.9901 11.3662 1.1679 21.1715 0.996435 21.3919C0.473891 22.0451 0.196289 22.8452 0.196289 23.6697V29.7929H6.31986C7.45476 29.7929 8.51618 29.2704 9.21018 28.3723L18.6976 18.9345C19.3998 18.2487 19.7917 17.3016 19.7917 16.3219Z" fill="url(#paint1_linear_6112_21542)"/>
</g>
</g>
<defs>
<linearGradient id="paint0_linear_6112_21542" x1="19.7859" y1="29.7954" x2="0.192496" y2="10.2025" gradientUnits="userSpaceOnUse">
<stop stop-color="#64B345"/>
<stop offset="0.24" stop-color="#95C13D"/>
<stop offset="0.3" stop-color="#5EA745"/>
<stop offset="0.5" stop-color="#019046"/>
<stop offset="0.68" stop-color="#5EA745"/>
<stop offset="0.74" stop-color="#95C13D"/>
<stop offset="1" stop-color="#53AE47"/>
</linearGradient>
<linearGradient id="paint1_linear_6112_21542" x1="2.75959" y1="35.5032" x2="17.2217" y2="4.50505" gradientUnits="userSpaceOnUse">
<stop stop-color="#53AE47"/>
<stop offset="1" stop-color="#FDEC06"/>
</linearGradient>
<clipPath id="clip0_6112_21542">
<rect width="132" height="40" fill="white"/>
</clipPath>
<clipPath id="clip1_6112_21542">
<rect width="131.608" height="19.6024" fill="white" transform="translate(0.196289 10.1987)"/>
</clipPath>
</defs>
</svg>
